<svg width="2402" height="799" viewBox="0 0 2402 799" fill="none" xmlns="http://www.w3.org/2000/svg">
<g clip-path="url(#clip0_0_1)">
<path d="M238.781 -0.398475C241.178 -0.400505 243.575 -0.403424 245.972 -0.407172C250.953 -0.411552 255.935 -0.405309 260.917 -0.391151C267.229 -0.374062 273.542 -0.383927 279.855 -0.401868C284.792 -0.412826 289.728 -0.409205 294.665 -0.401485C296.99 -0.399516 299.315 -0.401822 301.639 -0.408923C324.617 -0.463749 346.838 1.75446 369 7.99996C370.261 8.35502 370.261 8.35502 371.547 8.71725C415.409 21.4399 455.632 49.5553 482 87C482.419 87.5905 482.838 88.1811 483.27 88.7895C489.844 98.1417 495.683 107.883 501 118C501.343 118.651 501.686 119.303 502.039 119.974C521.384 157.367 525.482 197.682 525.392 239.05C525.385 243.736 525.396 248.422 525.404 253.108C525.417 262.256 525.415 271.404 525.406 280.552C525.399 287.995 525.398 295.438 525.401 302.881C525.402 303.945 525.402 305.01 525.403 306.106C525.404 308.269 525.405 310.432 525.406 312.595C525.414 332.818 525.405 353.042 525.388 373.265C525.375 390.572 525.377 407.878 525.391 425.184C525.407 445.341 525.413 465.498 525.404 485.656C525.403 487.81 525.402 489.965 525.401 492.119C525.401 493.179 525.401 494.238 525.4 495.33C525.398 502.754 525.402 510.177 525.409 517.6C525.417 526.662 525.415 535.724 525.399 544.786C525.391 549.399 525.388 554.011 525.398 558.623C525.528 623.904 508.399 685.147 461.607 732.774C417.77 776.512 364.333 793.994 303.614 796.876C300.85 797.007 298.086 797.142 295.322 797.278C210.055 801.398 210.055 801.398 184 796C182.502 795.694 182.502 795.694 180.973 795.382C146.289 788.091 114.748 774.245 87.0001 752C86.0152 751.219 85.0304 750.438 84.0157 749.633C69.4448 737.828 55.8442 724.329 45.0001 709C44.5187 708.32 44.0374 707.64 43.5416 706.939C11.048 660.529 -0.69305 609.626 -0.52285 553.626C-0.513642 549.126 -0.52784 544.625 -0.538764 540.125C-0.55639 531.349 -0.552782 522.574 -0.541114 513.799C-0.532017 506.656 -0.530883 499.513 -0.535209 492.37C-0.535822 491.346 -0.536439 490.323 -0.537071 489.269C-0.53835 487.189 -0.539647 485.109 -0.540962 483.029C-0.552321 463.603 -0.53932 444.178 -0.517753 424.753C-0.499886 408.148 -0.502994 391.542 -0.52143 374.937C-0.54292 355.573 -0.551214 336.209 -0.538978 316.845C-0.537704 314.773 -0.53645 312.702 -0.535209 310.63C-0.534592 309.611 -0.533968 308.593 -0.533332 307.543C-0.529904 300.423 -0.535661 293.303 -0.545127 286.183C-0.556439 277.485 -0.553117 268.788 -0.532005 260.09C-0.521616 255.667 -0.517158 251.245 -0.530601 246.822C-0.610645 218.037 1.88968 190.811 10.0001 163C10.2403 162.172 10.4806 161.344 10.7281 160.491C17.4177 138.148 28.4063 115.914 42.0001 97C42.7451 95.9455 43.4902 94.8911 44.2579 93.8046C56.687 76.7424 71.2017 60.8323 88.0001 48C88.5365 47.5818 89.0729 47.1637 89.6255 46.7329C132.843 13.1462 184.712 -0.563636 238.781 -0.398475ZM177.375 13.6875C176.352 13.9416 175.329 14.1958 174.275 14.4577C145.127 21.9684 117.494 35.1072 94.0001 54C93.0139 54.7824 92.0278 55.5649 91.0118 56.3711C76.4352 68.1777 62.8695 81.6847 52.0001 97C51.5782 97.5934 51.1564 98.1869 50.7217 98.7983C20.538 141.747 6.78251 191.492 6.87307 243.8C6.87191 245.226 6.87032 246.651 6.86834 248.076C6.86421 251.947 6.86621 255.818 6.86933 259.688C6.87161 263.881 6.86809 268.073 6.86535 272.265C6.86092 280.46 6.86186 288.654 6.86477 296.849C6.86703 303.513 6.86732 310.178 6.86623 316.842C6.86608 317.793 6.86593 318.744 6.86578 319.724C6.86546 321.657 6.86513 323.589 6.8648 325.522C6.86195 343.613 6.86522 361.705 6.8706 379.796C6.87507 395.295 6.87429 410.794 6.86968 426.292C6.86432 444.322 6.86222 462.352 6.86529 480.382C6.86561 482.308 6.86592 484.233 6.86623 486.158C6.86639 487.105 6.86655 488.052 6.86671 489.028C6.86757 495.679 6.86612 502.329 6.86376 508.98C6.86095 517.093 6.86174 525.206 6.86704 533.319C6.86966 537.452 6.87072 541.586 6.86739 545.719C6.86439 549.513 6.86609 553.306 6.87136 557.1C6.87298 559.101 6.86978 561.103 6.86631 563.104C6.88482 571.779 7.32905 580.355 8.00005 589C8.66005 589 9.32005 589 10.0001 589C10.0595 588.005 10.0595 588.005 10.1202 586.991C11.5208 564.593 13.0348 541.344 29.0001 524C31.6133 521.84 31.6133 521.84 34.3126 519.937C35.7569 518.909 35.7569 518.909 37.2305 517.859C39.4909 516.342 41.747 515.003 44.1251 513.687C48.5514 510.981 51.3668 507.196 54.5274 503.141C56.7134 500.364 58.9704 497.7 61.2974 495.044C67.7275 487.696 73.631 480.035 79.4053 472.165C81.0739 469.9 82.7582 467.646 84.4454 465.395C92.3368 454.829 99.8315 444.067 107 433C107.487 432.253 107.974 431.506 108.475 430.737C147.721 373.901 147.721 373.901 168 310C167.166 309.72 166.332 309.441 165.473 309.152C157.895 306.453 151.889 303.507 146 298C145.437 297.478 144.873 296.956 144.293 296.418C138.673 290.57 135.017 282.021 134 274C134.095 271.991 134.192 269.981 134.32 267.973C134.778 260.854 134.778 260.854 132.434 254.309C131.053 252.886 129.629 251.504 128.168 250.164C118.8 240.813 116.077 225.161 115.75 212.5C115.865 200.44 118.301 187.739 124 177C124.99 176.67 125.98 176.34 127 176C126.783 174.637 126.783 174.637 126.563 173.246C123.311 151.232 124.96 131.019 138.383 112.613C144.555 104.822 144.555 104.822 149 103C149.248 103.536 149.495 104.072 149.75 104.625C151.297 107.564 153.13 110.258 155 113C157.061 109.909 157.733 107.624 158.688 104.062C162.912 90.0644 170.668 79.4742 183.445 72.3086C192.005 67.9241 200.566 65.7943 210 64C210.33 64.99 210.66 65.98 211 67C211.832 66.5823 211.832 66.5823 212.68 66.1562C213.445 65.7746 214.211 65.3931 215 65C215.807 64.5978 216.614 64.1956 217.445 63.7812C231.245 57.1833 243.166 57.1452 258 60C253.649 74.6308 248.712 85.6876 237 96C236.01 96.495 236.01 96.495 235 97C235.33 98.1137 235.66 99.2275 236 100.375C238.249 110.658 238.716 122.622 233.875 132.152C232.786 134.111 232.786 134.111 233 137C243.564 129.691 251.346 123.717 257 112C258.582 109.588 260.269 107.309 262 105C268.929 110.656 274.494 116.659 279.438 124.125C282.636 128.836 286.225 131.949 291 135C291.33 134.34 291.66 133.68 292 133C291.319 131.298 291.319 131.298 290.625 129.562C286.469 118.805 288.586 108.872 291 98C290.147 97.416 290.147 97.416 289.277 96.8203C276.919 87.8661 271.703 75.4737 268 61C284.654 58.1565 298.58 58.0492 313 68C313.66 68.33 314.32 68.66 315 69C315.66 68.01 316.32 67.02 317 66C333.804 68.2914 348.281 73.6767 359.027 87.6328C364.511 95.771 367.49 104.588 370 114C370.598 113.237 371.196 112.474 371.813 111.687C374 109 374 109 375.75 107.312C377.23 106.061 377.23 106.061 377 104C388.584 110.342 395.23 124.43 399.168 136.613C401.895 147.918 401.947 159.386 399.438 170.73C398.874 173.269 398.874 173.269 399 177C399.99 177.33 400.98 177.66 402 178C410.482 193.748 412.185 213.847 408 231C405.627 238.813 402.497 245.375 397.551 251.879C395.95 253.938 395.95 253.938 394.918 256.215C394 258 394 258 392 259C392.046 260.004 392.093 261.008 392.141 262.043C392.595 276.155 390.054 288.255 380.223 298.93C373.62 305.221 365.555 308.228 357 311C374.113 359.867 398.693 406.385 428 449C428.441 449.643 428.882 450.286 429.336 450.948C440.497 467.152 452.344 482.934 465 498C465.941 499.172 466.881 500.346 467.82 501.52C473.167 508.103 478.039 513.21 485.469 517.512C498.723 525.305 505.079 539 508.902 553.398C511.758 566.726 512.203 580.427 513 594C513.99 594 514.98 594 516 594C519.351 583.946 518.147 571.232 518.134 560.767C518.136 559.294 518.138 557.822 518.141 556.349C518.147 552.347 518.147 548.346 518.145 544.344C518.145 540.011 518.151 535.677 518.155 531.344C518.164 522.869 518.167 514.395 518.167 505.921C518.168 499.024 518.17 492.127 518.173 485.23C518.182 465.63 518.186 446.029 518.185 426.428C518.185 425.374 518.185 424.319 518.185 423.233C518.185 422.177 518.185 421.121 518.185 420.033C518.185 402.94 518.194 385.847 518.208 368.753C518.223 351.156 518.23 333.559 518.229 315.962C518.229 306.101 518.231 296.24 518.242 286.379C518.251 277.98 518.253 269.581 518.247 261.183C518.243 256.908 518.243 252.634 518.252 248.359C518.386 178.591 502.718 116.995 452.938 65.6875C448.233 61.1279 443.134 57.0614 438 53C436.988 52.1827 435.976 51.3654 434.934 50.5234C405.783 27.2499 369.741 13.9114 333 8.99996C332.346 8.91215 331.692 8.82433 331.017 8.73385C325.085 8.00451 319.235 7.8458 313.262 7.83883C312.226 7.83387 311.19 7.8289 310.123 7.82378C306.716 7.80925 303.309 7.80237 299.902 7.79684C298.139 7.7926 298.139 7.7926 296.341 7.78827C290.108 7.77331 283.875 7.76406 277.642 7.75973C271.272 7.75428 264.902 7.73032 258.532 7.70176C253.577 7.68292 248.622 7.67791 243.667 7.67639C241.322 7.67341 238.978 7.66552 236.634 7.65221C216.686 7.54708 196.783 8.75176 177.375 13.6875ZM213 71C211.489 74.502 212.102 78.0247 212.438 81.75C212.539 82.9204 212.641 84.0909 212.746 85.2968C212.83 86.1889 212.914 87.0809 213 88C217.072 85.0433 220.996 82.0492 224.688 78.625C232.098 72.0327 241.061 67.2065 250 63C239.13 56.7237 221.462 62.7841 213 71ZM275 63C277.647 64.7644 280.334 66.2334 283.142 67.7165C292.476 72.7171 300.441 78.8179 308.445 85.7224C310.185 87.1953 310.185 87.1953 313 89C314.433 81.0294 314.433 81.0294 314 73C309.683 67.1093 301.877 64.726 295 63C294.196 62.7731 293.391 62.5462 292.563 62.3125C286.748 61.6034 280.69 61.4826 275 63ZM242.438 70.5C241.812 70.8616 241.187 71.2233 240.542 71.5959C234.933 74.9131 229.913 78.7164 225 83C224.122 83.7566 223.244 84.5133 222.34 85.2929C217.843 89.2467 213.49 93.114 210 98C210 98.99 210 99.98 210 101C211.176 100.587 212.351 100.175 213.563 99.75C217.236 98.5021 220.923 97.5184 224.695 96.614C236.523 93.7112 241.42 88.262 248 78C250.913 72.7627 250.913 72.7627 252 67C248.131 67 245.689 68.6108 242.438 70.5ZM274 68C276.884 78.3481 282.317 89.5056 292 95C296.864 96.8949 301.901 98.2092 306.958 99.479C309.992 100.253 312.993 101.127 316 102C312.782 90.0927 299.287 81.0043 288.988 74.7851C281.845 70.1693 281.845 70.1693 274 68ZM206 69C186.249 86.4189 172.382 106.621 168 133C167.913 134.54 167.87 136.083 167.875 137.625C167.872 138.38 167.87 139.136 167.867 139.914C167.923 142.195 167.923 142.195 169 145C169.66 145 170.32 145 171 145C171.389 144.212 171.779 143.425 172.18 142.613C179.395 128.565 188.558 116.261 201.68 107.137C207.221 102.033 207.974 92.3711 208.316 85.1171C208.827 76.6483 208.827 76.6483 206 69ZM173.879 84.0273C164.911 93.402 159.964 105.096 159 118C159.75 120.692 159.75 120.692 161 123C161.281 123.666 161.562 124.333 161.852 125.019C162.107 125.611 162.362 126.203 162.625 126.812C163.079 127.864 163.533 128.916 164 130C166.863 127.137 167.188 123.698 168.125 119.875C173.338 100.081 184.483 84.2945 199 70C189.496 70 180.361 77.8321 173.879 84.0273ZM319 71C316.628 73.3722 317.752 80.011 317.745 83.3479C317.835 91.5435 318.431 100.934 323 108C325.319 109.864 325.319 109.864 328.063 111.625C340.258 120.274 348.568 132.651 355 146C355.66 146 356.32 146 357 146C359.099 139.704 357.959 133.324 356.438 127C356.175 125.906 356.175 125.906 355.908 124.79C350.776 104.71 338.389 82.985 321 71C320.34 71 319.68 71 319 71ZM327 71C329.975 74.5557 332.894 77.9317 336.313 81.0625C349.668 94.3004 356.291 113.271 361 131C364.375 126.589 367.091 123.008 366.918 117.301C364.922 103.031 358.211 89.2574 347 80C340.737 75.5115 334.47 72.8118 327 71ZM190 123C183.951 129.633 179.199 136.964 174.875 144.812C174.484 145.506 174.093 146.199 173.69 146.913C171.099 151.849 170.614 155.437 171 161C174.346 157.754 177.324 154.425 180.188 150.75C186.566 142.914 193.762 136.771 202 131C213.564 122.895 223.136 114.107 229 101C213.558 100.279 199.993 112.534 190 123ZM297 102C303.522 115.979 313.01 124.615 325.368 133.287C335.922 140.697 344.148 148.992 351.883 159.289C352.582 160.184 353.28 161.078 354 162C354.33 162 354.66 162 355 162C355.365 155.98 354.605 152.028 351.563 146.75C351.205 146.107 350.847 145.463 350.479 144.801C346.854 138.446 342.612 132.679 338 127C337.426 126.273 336.853 125.546 336.262 124.797C327.3 113.931 315.593 105.861 302 102C299.249 101.831 299.249 101.831 297 102ZM232 103C231.515 103.834 231.031 104.668 230.531 105.527C223.348 117.588 215.638 125.477 204.221 133.696C194.147 140.976 185.192 148.745 178 159C182.149 159 184.799 156.892 188.25 154.812C195.939 150.324 203.465 147.494 212 145C220.704 142.402 225.665 139.4 230.637 131.551C234.844 123.679 235.88 115.721 234 107C233.024 104.759 233.024 104.759 232 103ZM293 104C290.393 114.263 290.192 122.913 295.324 132.465C300.773 141.06 305.134 144.026 314.977 146.418C325.514 149.022 334.881 153.507 343.793 159.68C346.001 161.257 346.001 161.257 349 161C340.085 150.031 330.922 141.204 319.375 132.937C309.753 125.983 302.897 119.073 296.813 108.941C295.16 106.006 295.16 106.006 293 104ZM145 110C132.677 124.589 126.593 140.524 127.767 159.78C128.616 167.854 130.292 178.994 136.625 184.312C137.277 184.865 137.93 185.418 138.602 185.988C139.789 186.984 139.789 186.984 141 188C142.218 189.041 143.434 190.083 144.65 191.126C145.278 191.664 145.906 192.203 146.553 192.758C147.031 193.168 147.508 193.578 148 194C147.461 165.996 146.873 137.996 146 110C145.67 110 145.34 110 145 110ZM262 111C260.494 112.991 259.142 114.957 257.813 117.062C257.413 117.693 257.014 118.323 256.603 118.973C244.546 138.443 237.499 160.983 238 184C242.783 180.6 246.004 176.448 249.5 171.812C250.056 171.095 250.611 170.378 251.184 169.639C257.881 161.545 257.881 161.545 261 152C261.66 152 262.32 152 263 152C263.208 152.669 263.415 153.338 263.629 154.027C265.488 158.058 268.112 161.163 270.938 164.562C271.512 165.26 272.085 165.959 272.677 166.678C277.894 172.972 283.239 179.195 289 185C289.33 185 289.66 185 290 185C293.08 160.694 286.001 138.023 271.246 118.691C268.959 115.95 266.632 113.413 264 111C263.34 111 262.68 111 262 111ZM380 112C379.737 121.05 379.476 130.1 379.218 139.15C379.098 143.353 378.977 147.557 378.855 151.76C378.736 155.826 378.62 159.891 378.504 163.957C378.46 165.498 378.416 167.04 378.37 168.582C378.112 177.39 377.934 186.188 378 195C379.649 193.591 381.295 192.179 382.926 190.75C385 189 385 189 387.106 187.5C394.559 181.906 396.089 174.419 397.582 165.539C399.64 148.114 396.615 131.595 386.023 117.34C384.414 115.462 382.829 113.664 381 112C380.67 112 380.34 112 380 112ZM150 113C149.889 132.944 149.948 152.874 150.438 172.812C150.457 173.663 150.477 174.514 150.497 175.391C150.555 177.83 150.618 180.268 150.684 182.707C150.7 183.415 150.717 184.123 150.734 184.852C150.745 195.235 150.745 195.235 154.563 204.562C155.245 205.554 155.245 205.554 155.941 206.566C156.465 207.276 156.465 207.276 157 208C167.076 196.57 168.545 175.961 167.875 161.5C166.689 144.351 160.971 127.077 151 113C150.67 113 150.34 113 150 113ZM375 114C365.14 127.939 358.687 145.897 358 163C357.94 164.031 357.94 164.031 357.879 165.082C357.406 180.084 360.989 195.735 368 209C376.896 198.028 375.246 185.182 375.563 171.562C375.584 170.701 375.605 169.839 375.627 168.952C376.072 150.634 376.109 132.322 376 114C375.67 114 375.34 114 375 114ZM243 134C239.873 136.289 236.749 138.582 233.625 140.875C232.736 141.526 231.846 142.177 230.93 142.848C230.079 143.473 229.228 144.098 228.352 144.742C227.566 145.318 226.781 145.894 225.971 146.488C222.887 148.753 222.887 148.753 221.577 152.192C221.452 153.541 221.452 153.541 221.324 154.918C221.222 155.918 221.119 156.918 221.013 157.948C220.906 159.017 220.798 160.086 220.688 161.187C218.405 181.103 212.284 197.308 197 211C197.66 211.33 198.32 211.66 199 212C208.572 208.255 217.298 202.615 225.342 196.268C227 195 227 195 228.908 193.82C232.112 191.621 233.724 190.023 234.753 186.205C235.192 182.738 235.438 179.302 235.625 175.812C236.615 163.247 238.177 150.863 243.215 139.184C244.301 136.871 244.301 136.871 243 134ZM287 137C287.182 137.559 287.364 138.119 287.551 138.695C291.94 152.696 293.423 164.942 292.18 179.584C291.867 186.684 291.867 186.684 295.21 192.715C298.03 195.067 300.883 197.062 304 199C304.731 199.495 305.462 199.989 306.215 200.499C308.049 201.714 309.909 202.836 311.813 203.937C312.428 204.309 313.044 204.681 313.678 205.064C317.345 207.231 320.914 208.805 325 210C324.66 209.585 324.319 209.17 323.969 208.742C312.508 194.172 304.423 176.744 305.117 157.801C305.305 152.275 305.305 152.275 302.75 147.544C298.101 143.253 292.751 139.641 287 137ZM180 165C178.724 165.812 178.724 165.812 177.422 166.641C173.976 169.095 172.296 170.816 171.254 174.984C170.952 177.35 170.696 179.722 170.481 182.098C169.434 190.597 166.582 199.291 162.625 206.875C162.089 207.906 161.553 208.937 161 210C161.33 210.66 161.66 211.32 162 212C183.01 195.104 201.808 176.426 214 152C214 151.34 214 150.68 214 150C201.646 150 189.716 158.046 180 165ZM312 151C318.555 168.512 331.313 182.652 344 196C344.59 196.643 345.181 197.286 345.789 197.949C351.227 203.696 357.682 208.278 364 213C364 209.257 362.634 206.499 361.188 203.125C357.747 194.813 354.903 186.396 355.063 177.312C354.614 172.847 352.285 170.909 349 168C339.197 160.23 324.861 151 312 151ZM217 153C216.539 153.848 216.077 154.696 215.602 155.57C207.625 170.01 198.04 182.759 187 195C185.987 196.123 185.987 196.123 184.953 197.27C180.318 202.132 175.093 206.189 169.747 210.233C166.962 212.355 164.96 214.06 163 217C163.99 218.32 164.98 219.64 166 221C179.807 218.209 190.072 213.032 200 203C200.637 202.397 201.274 201.793 201.93 201.172C212.837 190.023 218.009 171.806 218.063 156.562C218.042 155.387 218.021 154.211 218 153C217.67 153 217.34 153 217 153ZM308 154C308.279 172.87 312.623 190.836 325.871 205.062C335.248 213.596 347.096 221.12 360 222C360.99 220.35 361.98 218.7 363 217C361.732 215.931 361.732 215.931 360.438 214.84C339.228 196.943 322.034 178.757 309 154C308.67 154 308.34 154 308 154ZM262 161C260.514 163.067 259.065 165.151 257.625 167.25C252.618 174.404 247.049 180.721 241 187C240.358 187.705 239.716 188.41 239.055 189.137C226.646 202.378 209.968 211.933 193 218C193 218.33 193 218.66 193 219C194.887 219.329 194.887 219.329 196.813 219.664C211.956 222.417 225.178 226.036 237.985 234.742C242.534 237.811 247.079 240.013 252.219 241.906C255 243 255 243 257.406 244.469C260.103 246.015 261.887 246.751 265 247C269.888 245.319 274.197 242.863 278.671 240.301C297.804 229.612 316.399 223.916 338 221C335.702 218.702 333.964 218.099 330.938 216.937C303.412 205.625 280.939 187.547 264.313 162.801C263.879 162.206 263.446 161.612 263 161C262.67 161 262.34 161 262 161ZM128 183C132.289 211.708 141.822 242.79 160 266C160.33 266 160.66 266 161 266C161.319 260.258 161.588 254.516 161.812 248.77C161.895 246.821 161.991 244.873 162.101 242.925C162.805 230.283 162.701 221.558 155 211C154.564 210.336 154.128 209.671 153.678 208.987C149.375 202.58 144.102 196.848 138.688 191.375C137.95 190.629 137.95 190.629 137.199 189.869C134.349 187.077 131.505 184.903 128 183ZM382.262 197.723C376.059 204.273 371.368 211.142 367 219C366.472 219.851 365.943 220.702 365.399 221.579C363.537 226.133 363.721 229.916 363.926 234.773C363.952 235.697 363.979 236.621 364.006 237.573C364.093 240.507 364.203 243.441 364.313 246.375C364.376 248.371 364.438 250.367 364.498 252.363C364.649 257.243 364.819 262.121 365 267C367.823 264.351 369.864 261.85 371.734 258.465C372.222 257.583 372.71 256.702 373.212 255.794C373.72 254.851 374.227 253.909 374.75 252.937C375.28 251.953 375.81 250.969 376.356 249.954C387.187 229.537 395.743 207.173 398 184C393.657 184 385.287 194.714 382.262 197.723ZM124 185C123.35 187.207 122.705 189.416 122.063 191.625C121.703 192.855 121.343 194.085 120.973 195.352C116.786 211.056 118.558 228.306 126.469 242.633C132.042 251.248 138.239 257.662 147 263C147.861 263.577 148.722 264.155 149.609 264.75C150.398 265.162 151.187 265.575 152 266C152.99 265.67 153.98 265.34 155 265C154.371 263.898 153.742 262.796 153.094 261.66C139.108 236.966 130.206 212.982 125 185C124.67 185 124.34 185 124 185ZM401 186C400.781 187.223 400.562 188.447 400.336 189.707C395.721 214.58 387.106 236.817 375.072 258.998C373.659 261.637 372.32 264.312 371 267C377.157 266.166 381.145 262.642 386 259C387.052 258.237 388.104 257.474 389.188 256.687C393.158 252.893 396.067 248.625 399 244C399.393 243.385 399.786 242.77 400.191 242.137C408.986 226.583 408.178 208.732 404 192C403.357 189.992 402.699 187.989 402 186C401.67 186 401.34 186 401 186ZM165 227C164.635 229.667 164.635 229.667 164.813 232.625C164.84 233.628 164.867 234.631 164.895 235.664C164.929 236.435 164.964 237.206 165 238C165.559 237.884 166.118 237.768 166.693 237.649C169.274 237.116 171.856 236.589 174.438 236.062C175.316 235.88 176.195 235.698 177.1 235.51C185.634 233.778 193.916 232.821 202.625 232.875C203.391 232.877 204.157 232.879 204.947 232.881C212.324 232.936 219.649 233.393 227 234C213.741 223.417 180.127 216.915 165 227ZM311 230C311 230.33 311 230.66 311 231C311.829 231.022 311.829 231.022 312.674 231.044C328.077 231.496 342.38 232.796 357 238C357.99 238 358.98 238 360 238C359.887 236.187 359.759 234.374 359.625 232.562C359.521 231.048 359.521 231.048 359.414 229.504C359.209 228.264 359.209 228.264 359 227C346.486 220.743 323.976 226.719 311 230ZM267 251C267 257.6 267 264.2 267 271C265.68 271 264.36 271 263 271C263 264.4 263 257.8 263 251C234.289 238.069 199.219 230.147 168.5 241.605C167.345 242.066 166.19 242.526 165 243C165.14 247.146 165.288 251.292 165.438 255.437C165.477 256.602 165.516 257.767 165.557 258.967C165.599 260.111 165.64 261.255 165.684 262.434C165.72 263.476 165.757 264.518 165.795 265.592C166.045 269.74 166.541 273.87 167 278C230.69 278 294.38 278 360 278C360.934 271.462 361.184 265.383 361.188 258.812C361.2 257.733 361.212 256.653 361.225 255.541C361.227 254.503 361.229 253.464 361.231 252.395C361.235 251.455 361.239 250.515 361.243 249.546C360.985 246.838 360.517 245.25 359 243C356.626 241.926 354.474 241.117 352 240.375C351.377 240.171 350.755 239.968 350.113 239.758C321.099 230.577 292.868 236.364 267 251ZM137 261C136.327 272.598 137.696 282.996 145.305 292.191C151.562 298.867 158.012 303.831 167 306C166.221 298.803 165.342 291.62 164.438 284.437C164.299 283.333 164.16 282.229 164.018 281.092C163.679 278.394 163.34 275.697 163 273C162.129 272.72 161.257 272.441 160.359 272.152C151.864 269.293 144.598 265.829 137 261ZM383.25 265.187C378.803 268.181 375.27 269.4 370.063 270.5C366.637 271.466 366.637 271.466 364 274C361.441 280.352 360.983 287.338 360.331 294.099C359.834 298.458 358.945 302.719 358 307C368.94 303.581 377.367 298.563 384 289C385.617 285.746 386.905 282.462 388 279C388.296 278.072 388.296 278.072 388.598 277.125C389.161 274.149 389.093 271.275 389.063 268.25C389.054 267.08 389.045 265.909 389.035 264.703C389.024 263.811 389.012 262.919 389 262C386.957 262 384.853 264.101 383.25 265.187ZM168 282C168 288.365 168.212 293.466 169.625 299.5C169.803 300.272 169.981 301.044 170.165 301.839C178.234 335.383 198.044 364.442 227.617 382.611C234.465 386.62 241.555 389.514 249.063 392.062C249.943 392.362 250.824 392.661 251.731 392.97C259.875 395.57 266.034 395.433 274 392.5C274.736 392.233 275.472 391.966 276.231 391.691C292.637 385.53 306.288 376.008 319 364C319.75 363.314 320.501 362.628 321.273 361.922C338.404 345.693 348.986 323.505 355.813 301.25C356.123 300.259 356.123 300.259 356.44 299.248C358.17 293.327 358.415 288.44 359 282C330.29 282 301.58 282 272 282C272.655 293.777 272.655 293.777 274.563 305C275.655 309.766 276.553 314.107 276 319C272.8 322.41 268.426 324.604 263.801 325.359C259.094 325.1 255.803 322.879 252.152 320.059C250.3 316.749 251.304 313.555 252 310C252.237 308.726 252.474 307.453 252.719 306.141C253.238 303.557 253.758 300.974 254.281 298.391C255.169 292.969 255.544 287.474 256 282C226.96 282 197.92 282 168 282ZM259 282C258.807 283.437 258.613 284.875 258.414 286.355C257.032 296.585 255.635 306.807 254 317C255.051 317.848 256.116 318.678 257.188 319.5C257.779 319.964 258.371 320.428 258.981 320.906C261.569 322.308 263.078 322.283 266 322C268.287 320.735 268.287 320.735 270.313 319C271.01 318.443 271.707 317.886 272.426 317.312C272.945 316.879 273.465 316.446 274 316C273.889 315.432 273.779 314.864 273.665 314.279C271.579 303.545 269.527 292.83 268 282C265.03 282 262.06 282 259 282ZM170 316C169.629 316.918 169.259 317.835 168.877 318.781C143.5 381.434 111.279 439.778 68.0001 492C66.2474 494.123 64.4982 496.248 62.7501 498.375C61.6904 499.655 61.6904 499.655 60.6094 500.961C58.9628 502.905 58.9628 502.905 58.0001 505C68.9116 502.129 77.1934 494.589 85.4669 487.328C86.9814 486.016 88.5298 484.744 90.0782 483.473C92.8816 481.1 95.432 478.623 98.0001 476C99.0763 474.943 100.155 473.889 101.234 472.836C108.309 465.892 114.917 458.846 121 451C121.775 450.042 122.55 449.084 123.348 448.098C146.979 418.399 163.058 383.47 173 347C173.196 346.296 173.392 345.592 173.594 344.866C176.659 333.695 175.144 326.66 171 316C170.67 316 170.34 316 170 316ZM354 317C353.119 318.631 352.271 320.281 351.438 321.937C350.962 322.854 350.486 323.771 349.996 324.715C342.237 350.306 368.856 394.656 380.379 416.566C391.397 437.005 405.949 455.295 422 472C422.773 472.806 422.773 472.806 423.563 473.629C430.643 480.964 437.93 487.744 446 494C446.696 494.563 447.392 495.127 448.109 495.707C452.953 499.533 458.195 502.831 464 505C464.66 504.67 465.32 504.34 466 504C465.322 503.212 464.644 502.425 463.945 501.613C457.825 494.466 451.939 487.195 446.276 479.679C445.027 478.035 443.756 476.409 442.481 474.785C435.126 465.321 428.465 455.4 421.813 445.437C421.345 444.739 420.878 444.041 420.396 443.322C413.971 433.712 407.865 423.961 402 414C401.488 413.144 400.976 412.288 400.449 411.405C384.778 385.162 371.984 357.52 360.369 329.289C358.65 325.159 356.844 321.076 355 317C354.67 317 354.34 317 354 317ZM345 336C343.918 337.435 342.91 338.926 341.938 340.437C341.39 341.261 340.842 342.085 340.277 342.934C332.612 361.335 347.223 392.34 354 410C356.026 414.88 358.355 419.534 360.955 424.131C362.11 426.197 363.204 428.291 364.297 430.391C369.944 441.088 376.376 452.376 385 461C387.121 461.302 389.247 461.566 391.375 461.812C397.29 462.599 402.398 463.994 407.891 466.293C408.587 466.526 409.283 466.76 410 467C410.66 466.67 411.32 466.34 412 466C411.406 465.38 410.812 464.76 410.199 464.121C380.284 432.158 361.946 391.644 350 350C349.56 348.482 349.12 346.963 348.68 345.445C347.772 342.301 346.88 339.152 346 336C345.67 336 345.34 336 345 336ZM179 337C177.422 340.597 176.391 344.214 175.454 348.025C170.667 367.449 163.715 386.01 155 404C154.665 404.702 154.329 405.404 153.983 406.128C143.802 427.204 129.945 448.701 113 465C113.33 465.66 113.66 466.32 114 467C114.788 466.734 115.575 466.469 116.387 466.195C122.276 464.286 127.496 462.909 133.688 462.562C139.284 461.751 141.55 460.03 145.063 455.625C146.802 453.138 148.405 450.581 150 448C150.468 447.274 150.935 446.548 151.417 445.801C168.762 418.862 180.64 389.636 186 358C186.154 357.119 186.308 356.239 186.467 355.332C187.267 349.727 187.063 346.645 183.625 341.875C182.978 340.944 182.331 340.014 181.664 339.055C181.115 338.377 180.566 337.699 180 337C179.67 337 179.34 337 179 337ZM334 353C330.986 356.014 332.75 365.881 332.749 369.948C332.948 392.976 338.117 414.274 346.952 435.476C347.655 437.168 348.31 438.881 348.917 440.61C352.226 448.855 358.026 451.496 365.813 455.125C367.567 455.987 367.567 455.987 369.357 456.867C372.226 458.272 375.106 459.648 378 461C378 456.982 376.49 455.607 374.125 452.375C354.241 424.451 340.532 391.186 336.535 357.027C336.359 356.028 336.182 355.029 336 354C335.34 353.67 334.68 353.34 334 353ZM190 354C189.79 355.084 189.79 355.084 189.576 356.189C182.09 394.295 168.912 427.496 146 459C146.66 459.33 147.32 459.66 148 460C158.313 456.512 172.016 450.953 177.311 440.918C178.499 438.063 179.5 435.205 180.351 432.232C181.012 429.957 181.797 427.765 182.629 425.547C189.514 406.812 193.086 387.186 193.313 367.25C193.339 365.801 193.339 365.801 193.366 364.323C193.365 363.417 193.364 362.511 193.363 361.578C193.366 360.768 193.369 359.957 193.372 359.122C192.917 356.528 192.002 355.645 190 354ZM325.969 361.635C323.509 364.59 323.499 366.03 323.498 369.835C323.489 371.01 323.48 372.185 323.47 373.396C323.481 374.663 323.492 375.929 323.504 377.234C323.503 378.541 323.501 379.849 323.5 381.195C323.498 383.963 323.511 386.73 323.534 389.497C323.562 393.025 323.559 396.553 323.546 400.081C323.538 403.466 323.553 406.85 323.566 410.234C323.564 411.493 323.561 412.752 323.558 414.048C323.637 421.529 323.904 428.006 328.656 434.137C333.976 438.611 339.555 441.429 346 444C345.431 439.849 343.952 436.335 342.321 432.517C332.308 408.981 329.94 385.292 329 360C327.695 359.895 327.695 359.895 325.969 361.635ZM197 363C196.935 363.859 196.871 364.719 196.804 365.604C194.843 390.824 191.805 415.457 180.289 438.41C178.852 440.816 178.852 440.816 179 443C185.815 441.253 191.759 437.856 196.11 432.311C199.348 426.441 198.49 419.602 198.391 413.098C198.383 411.65 198.378 410.203 198.374 408.756C198.358 404.966 198.319 401.177 198.275 397.388C198.234 393.513 198.215 389.638 198.195 385.764C198.153 378.175 198.084 370.588 198 363C197.67 363 197.34 363 197 363ZM202 368C201.999 368.729 201.997 369.459 201.996 370.211C201.978 377.124 201.936 384.038 201.868 390.951C201.834 394.504 201.809 398.057 201.805 401.611C201.799 405.707 201.754 409.802 201.707 413.898C201.713 415.79 201.713 415.79 201.719 417.719C201.594 425.387 200.669 431.71 196 438C192.879 440.546 189.617 442.237 186 444C184.448 444.786 182.898 445.574 181.348 446.363C176.915 448.61 172.462 450.813 168 453C171.658 459.667 176.058 465.218 181 471C181.714 471.839 182.428 472.678 183.164 473.543C203.13 496.376 230.738 515.031 260.609 521.82C278.951 522.792 303.138 504.931 317 494C317.946 493.263 318.892 492.525 319.867 491.766C329.618 483.976 339.101 475.693 347 466C347.726 465.139 348.452 464.278 349.199 463.391C353.537 458.776 353.537 458.776 355 453C354.34 452.668 353.68 452.336 353 451.994C349.974 450.464 346.956 448.92 343.938 447.375C342.38 446.592 342.38 446.592 340.791 445.793C332.795 441.681 325.301 437.802 322 429C321.231 425.09 320.86 421.342 320.795 417.362C320.775 416.281 320.755 415.2 320.734 414.087C320.709 412.362 320.709 412.362 320.684 410.602C320.663 409.411 320.642 408.221 320.621 406.995C320.555 403.205 320.496 399.415 320.438 395.625C320.394 393.051 320.351 390.477 320.307 387.902C320.2 381.602 320.098 375.301 320 369C318.72 369.958 317.441 370.916 316.162 371.874C315.449 372.407 314.737 372.941 314.003 373.49C312.461 374.652 310.933 375.832 309.41 377.02C298.935 385.02 287.307 391.061 274.938 395.562C274.26 395.814 273.582 396.066 272.884 396.325C265.247 398.942 258.755 398.36 251.063 396C250.334 395.778 249.605 395.557 248.854 395.329C231.933 389.951 217.383 381.235 204.356 369.18C203.174 367.891 203.174 367.891 202 368ZM156.875 459C155.779 459.557 154.684 460.114 153.555 460.687C152.712 461.121 151.869 461.554 151 462C151 462.66 151 463.32 151 464C151.681 464.516 152.361 465.031 153.063 465.562C155.268 468.337 155.291 468.971 155.063 472.375C154.286 477.234 152.488 479.595 149 483C148.01 483.66 147.02 484.32 146 485C149.35 504.094 159.505 522.605 171 538C171.578 538.802 172.155 539.604 172.75 540.43C193.296 567.672 225.33 589.772 259 597C283.764 598.647 314.896 578.389 332.82 562.711C354.296 543.404 372.527 517.609 379 489C378.82 486.11 378.277 485.277 376.223 483.219C375.51 482.652 374.797 482.084 374.063 481.5C371.19 479.206 369.334 477.461 368 474C367.527 469.666 367.517 467.709 370 464.062C370.66 463.382 371.32 462.701 372 462C370.236 460.967 368.464 459.949 366.688 458.937C365.701 458.369 364.715 457.801 363.699 457.215C360.987 455.628 360.987 455.628 358 457C356.416 458.907 354.951 460.809 353.5 462.812C332.091 491.461 301.502 511.966 268 524C268.934 525.273 269.873 526.543 270.813 527.812C271.335 528.52 271.857 529.228 272.395 529.957C273.901 532.024 273.901 532.024 275.762 533.449C277 535 277 535 276.773 537.199C275.855 540.527 274.476 543.3 272.875 546.359C272.568 546.949 272.261 547.539 271.945 548.147C271.299 549.385 270.65 550.622 269.998 551.858C268.998 553.755 268.006 555.656 267.016 557.559C262.169 566.831 262.169 566.831 261 568C258.999 563.501 257.006 558.998 255.019 554.493C254.342 552.96 253.663 551.429 252.982 549.898C252.003 547.699 251.032 545.496 250.063 543.293C249.756 542.608 249.45 541.924 249.135 541.219C247.858 538.303 247 536.22 247 533C248.715 531.246 248.715 531.246 250.938 529.437C253.927 527.087 253.927 527.087 256 524C255.195 523.715 255.195 523.715 254.374 523.424C218.714 510.666 188.927 490.571 167.293 459.066C166.536 458.054 165.78 457.043 165 456C161.879 456 159.63 457.593 156.875 459ZM134 466C134 466.33 134 466.66 134 467C136.64 467.66 139.28 468.32 142 469C142.813 471.625 142.813 471.625 143 475C138.837 482.401 130.602 485.485 122.832 488.043C115.347 490.064 108.627 490.907 101 489C101 486.03 101 483.06 101 480C97.2612 482.657 95.3503 484.581 94.0001 489C96.9513 492.37 99.5325 493.088 103.867 493.84C118.666 494.596 134.808 488.363 146 479C148.755 476.111 150.411 473.976 151 470C146.904 466.751 144.016 465.87 138.813 465.937C137.912 465.946 137.01 465.956 136.082 465.965C135.051 465.982 135.051 465.982 134 466ZM372 469C372.511 473.468 374.015 475.682 377 479C389.321 488.387 405.375 494.476 421 493C423.548 492.222 425.625 491.239 428 490C427.725 485.968 427.465 484.431 424.438 481.625C423.231 480.821 423.231 480.821 422 480C422.021 480.949 422.041 481.897 422.063 482.875C422 486 422 486 421 488C410.687 491.438 399.462 488.214 390.063 483.539C385.888 481.148 382.594 479.145 380 475C379.563 471.937 379.563 471.937 380 469C382 467.125 382 467.125 384 466C377.367 465.494 377.367 465.494 372 469ZM384 473C390.739 479.585 399.948 484.733 409.578 485.098C410.901 485.08 410.901 485.08 412.25 485.062C413.142 485.053 414.034 485.044 414.953 485.035C415.629 485.024 416.304 485.012 417 485C417 484.01 417 483.02 417 482C409.591 475.289 399.209 471.316 389.313 470.812C385.92 470.636 385.92 470.636 384 473ZM107 481C105.673 483.07 105.673 483.07 105 485C109.607 487.303 116.071 485.507 120.856 484.25C127.006 482.168 133.183 479.46 138 475C138 474.01 138 473.02 138 472C126.543 471.342 116.436 474.3 107 481ZM141 488C140.34 488.66 139.68 489.32 139 490C139.341 493.041 139.809 495.89 140.438 498.875C140.624 499.769 140.811 500.663 141.004 501.584C146.093 524.703 156.186 546.488 171 565C171.471 565.589 171.941 566.177 172.426 566.784C187.168 585.003 204.61 598.166 225.245 609.029C226.881 609.934 228.445 610.963 230 612C229.34 612.66 228.68 613.32 228 614C212.968 606.501 199.496 598.537 187.164 587.008C185.309 585.286 183.413 583.703 181.438 582.125C167.554 570.253 154.317 550.141 148 533C146.909 536.274 147.023 536.824 148.082 539.93C148.349 540.714 148.617 541.499 148.892 542.308C149.196 543.155 149.5 544.002 149.813 544.875C150.285 546.2 150.285 546.2 150.766 547.552C158.737 569.295 169.542 588.769 185 606C186.16 607.342 186.16 607.342 187.344 608.711C204.328 628.147 226.207 642.032 250.25 651.125C251.024 651.421 251.798 651.716 252.595 652.021C260.662 654.909 266.754 654.185 274.625 651.187C275.443 650.878 276.262 650.569 277.105 650.251C320.846 633.144 349.774 600.782 369.031 558.749C372.366 552.032 372.366 552.032 372 545C371.29 546.307 371.29 546.307 370.566 547.641C354.554 576.677 329.399 601.25 297.5 612C295.768 612.495 295.768 612.495 294 613C293.67 612.01 293.34 611.02 293 610C293.542 609.837 294.083 609.674 294.641 609.506C300.52 607.654 305.876 605.267 311.313 602.375C312.141 601.935 312.969 601.496 313.822 601.043C324.744 595.118 333.97 587.509 343 579C343.602 578.451 344.204 577.902 344.824 577.336C368.291 555.127 381.591 521.65 385 490C384.01 490 383.02 490 382 490C381.66 491.114 381.319 492.227 380.969 493.375C377.579 504.164 373.407 514.075 368 524C367.434 525.058 366.868 526.117 366.285 527.207C345.893 563.817 310.586 587.327 271 599C262.467 601.379 255.084 599.56 246.875 596.75C245.838 596.398 244.8 596.046 243.731 595.683C221.268 587.729 202.06 575.455 185 559C184.086 558.161 183.172 557.322 182.231 556.457C163.205 538.465 149.722 513.165 143 488C142.34 488 141.68 488 141 488ZM129 494C130.883 547.466 152.237 622.215 190.395 661.656C208.26 677.727 230 690.534 252 700.062C253.042 700.53 253.042 700.53 254.104 701.007C260.244 703.561 264.843 702.887 271.031 700.574C272.526 699.957 274.015 699.328 275.5 698.687C276.313 698.339 277.126 697.991 277.964 697.632C293.969 690.627 309.362 682.563 323.418 672.152C324.79 671.153 326.204 670.213 327.625 669.285C335.106 664.181 339.369 656.576 344 649C344.489 648.208 344.979 647.415 345.483 646.599C349.069 640.779 352.563 634.909 356 629C356.553 628.058 356.553 628.058 357.116 627.098C380.243 587.297 392.98 539.715 396 494C393.69 493.34 391.38 492.68 389 492C387.799 494.401 387.593 496.408 387.238 499.074C382.202 535.245 371.52 570.622 349 600C348.335 600.874 347.67 601.748 346.984 602.648C334.857 618.166 334.857 618.166 329.938 621.324C327.088 623.789 326.093 626.951 324.75 630.375C319.566 642.844 312.565 654.713 302.766 664.152C300.77 665.815 300.77 665.815 301 668C300.421 668.255 299.842 668.51 299.246 668.773C296.773 670.124 295.09 671.672 293.063 673.625C287.546 678.624 281.446 682.319 275 686C274.073 686.544 273.146 687.088 272.191 687.648C271.345 688.115 270.498 688.582 269.625 689.062C268.895 689.466 268.166 689.869 267.414 690.285C262.79 691.654 258.996 690.453 254.711 688.504C230.279 674.285 210.899 655.082 198.721 629.398C196.151 624.054 193.169 620.152 189 616C176.876 603.25 167.086 589.623 159 574C158.659 573.349 158.318 572.697 157.966 572.026C144.945 546.869 138.377 519.102 136 491C133.628 491 131.071 492.942 129 494ZM427 496C424.678 496.706 422.345 497.376 420 498C425.597 514.494 432.937 530.42 444 544C444.424 544.523 444.849 545.046 445.286 545.584C461.076 564.943 483.774 586.319 509 592C509.791 569.378 507.629 544.245 491.891 526.641C487.29 522.163 482.315 518.863 476.731 515.789C476.037 515.403 475.344 515.018 474.629 514.621C467.458 510.657 460.202 506.857 452.914 503.113C450.707 501.978 448.504 500.835 446.301 499.691C444.883 498.96 443.465 498.23 442.047 497.5C441.396 497.162 440.745 496.823 440.074 496.474C433.238 492.731 433.238 492.731 427 496ZM83.2852 496.676C81.5574 497.539 81.5574 497.539 79.7947 498.419C78.5503 499.05 77.3063 499.681 76.0626 500.312C75.4357 500.629 74.8088 500.946 74.1629 501.272C69.7651 503.495 65.3792 505.74 61.0001 508C59.9775 508.527 58.955 509.054 57.9014 509.598C39.1932 519.331 24.9908 529.105 18.0001 550C14.0182 563.686 12.7457 578.774 13.0001 593C47.0469 583.272 76.3947 556.3 93.4376 525.875C101.013 513.259 101.013 513.259 103.645 499.586C103.432 499.063 103.219 498.539 103 498C101.742 497.711 100.484 497.422 99.1876 497.125C96.1461 496.427 94.6934 495.796 92.0001 494C88.3537 494 86.5415 495.043 83.2852 496.676ZM115.25 497C113.773 497.278 113.773 497.278 112.266 497.562C111.518 497.707 110.77 497.851 110 498C113.876 553.537 135.766 602.192 172 644C172 640.259 170.846 638.497 169.07 635.207C168.438 634.02 167.806 632.833 167.174 631.646C166.84 631.022 166.506 630.397 166.161 629.754C146.214 592.369 134.279 553.064 127.537 511.322C126.711 506.212 125.855 501.106 125 496C121.52 496 118.645 496.353 115.25 497ZM399 496C398.941 496.636 398.881 497.271 398.82 497.926C393.823 549.588 378.762 603.773 349 647C349.33 647.66 349.66 648.32 350 649C389.526 612.686 412.412 553.33 414.922 500.508C414.948 499.68 414.973 498.853 415 498C413.272 497.661 411.543 497.329 409.813 497C408.85 496.814 407.887 496.629 406.895 496.437C404.201 496.03 401.716 495.968 399 496ZM418 505C417.698 510.309 418.369 513.589 420.824 518.289C421.271 519.154 421.271 519.154 421.726 520.037C422.698 521.909 423.691 523.767 424.688 525.625C425.374 526.925 426.059 528.225 426.745 529.526C437.846 550.428 450.627 569.983 466 588C466.755 588.902 467.511 589.805 468.289 590.734C478.678 602.714 492.405 615.121 508.813 616.875C510.194 616.916 511.576 616.957 513 617C513.99 611.06 514.98 605.12 516 599C513.556 598.01 513.556 598.01 511.063 597C493.509 589.64 477.558 581.464 463 569C462.169 568.291 461.337 567.582 460.481 566.852C441.627 550.344 426.99 528.801 419 505C418.67 505 418.34 505 418 505ZM106 506C105.539 507.102 105.077 508.204 104.602 509.34C97.9516 524.928 90.3367 539.279 79.0001 552C78.282 552.838 77.564 553.676 76.8243 554.539C59.0919 574.886 35.7976 590.004 10.0001 598C10.4105 604.578 10.8661 610.74 13.0001 617C25.3224 616.945 34.9052 610.841 44.0001 603C44.8122 602.309 45.6243 601.618 46.461 600.906C71.6393 578.904 88.641 548.286 103.813 518.937C104.31 518.001 104.31 518.001 104.817 517.047C106.746 513.211 107.332 510.277 107 506C106.67 506 106.34 506 106 506ZM107 519C106.639 519.718 106.278 520.437 105.905 521.177C93.2478 546.242 79.1763 569.5 61.0001 591C60.3955 591.728 59.7909 592.457 59.168 593.207C47.1462 607.4 32.2238 617.149 14.0001 621C15.4401 629.941 18.2081 638.411 21.0001 647C52.2428 637.245 68.8161 603.816 83.0001 577C83.5613 575.95 84.1225 574.9 84.7007 573.818C91.5018 561.08 97.97 548.238 103.875 535.062C104.393 533.913 104.911 532.764 105.445 531.579C105.915 530.513 106.384 529.446 106.867 528.348C107.281 527.409 107.694 526.471 108.121 525.504C109.221 522.813 109.221 522.813 109 519C108.34 519 107.68 519 107 519ZM416 519C416.559 524.939 418.943 529.793 421.438 535.125C421.913 536.148 422.388 537.172 422.878 538.226C449.83 600.234 449.83 600.234 498 645C498.719 645.397 499.439 645.794 500.18 646.203C502.127 647.2 502.127 647.2 505 647C505.985 643.793 506.962 640.584 507.938 637.375C508.215 636.471 508.493 635.568 508.779 634.637C510.152 630.107 511.382 625.708 512 621C511.201 620.853 510.402 620.706 509.578 620.555C479.781 614.469 460.071 588.6 443.875 564.625C434.226 550.017 426.023 534.541 418 519C417.34 519 416.68 519 416 519ZM257.641 527.969C256.852 528.804 256.063 529.639 255.25 530.5C254.051 531.753 254.051 531.753 252.828 533.031C252.225 533.681 251.622 534.331 251 535C253.624 543.644 257.314 551.769 261 560C264.162 555.936 266.462 551.628 268.813 547.062C269.245 546.264 269.678 545.465 270.123 544.643C272.55 540.127 272.55 540.127 272.473 535.172C270.981 532.971 269.504 531.07 267.625 529.187C267.04 528.583 266.455 527.978 265.852 527.355C262.628 524.995 260.572 525.522 257.641 527.969ZM415 530C415.468 537.6 417.009 544.575 419.125 551.875C419.441 552.974 419.758 554.072 420.084 555.204C421.039 558.475 422.014 561.738 423 565C423.26 565.87 423.521 566.74 423.789 567.636C430.746 590.417 441.731 612.926 456 632C456.732 632.991 457.464 633.983 458.219 635.004C468.655 648.38 481.031 659.47 495 669C497.603 665.839 499.14 662.657 500.688 658.875C501.125 657.82 501.562 656.766 502.012 655.68C503.115 653.163 503.115 653.163 503 651C502.105 650.587 501.211 650.175 500.289 649.75C491.723 645.697 483.96 641.231 477.356 634.266C476.066 632.772 476.066 632.772 474 633C473.609 632.122 473.609 632.122 473.211 631.227C471.92 628.854 470.508 627.306 468.625 625.375C457.39 612.903 449.372 597.814 441.604 583.047C439.909 579.827 438.196 576.617 436.484 573.406C428.968 559.207 422.139 544.847 416 530C415.67 530 415.34 530 415 530ZM109 531C108.659 531.743 108.317 532.487 107.965 533.253C76.4577 601.757 76.4577 601.757 56.0001 626C55.4728 626.673 54.9456 627.346 54.4024 628.039C46.0392 638.354 34.7522 645.191 23.0001 651C23.7628 653.086 24.5356 655.169 25.3126 657.25C25.7418 658.41 26.1711 659.57 26.6133 660.766C27.826 663.594 29.0295 665.665 31.0001 668C40.209 661.906 48.3002 654.908 56.0001 647C56.5139 646.501 57.0278 646.002 57.5572 645.487C84.2157 619.468 108.584 570.549 110.125 532.949C110.084 532.306 110.043 531.663 110 531C109.67 531 109.34 531 109 531ZM412 540C411.458 541.639 410.943 543.287 410.438 544.937C410.148 545.854 409.857 546.77 409.559 547.715C407.907 557.426 411.914 566.69 415 575.75C415.246 576.48 415.492 577.211 415.746 577.963C419.894 590.25 424.464 602.262 430 614C430.341 614.724 430.683 615.448 431.034 616.194C433.254 620.852 435.589 625.439 438 630C438.589 631.132 439.178 632.264 439.785 633.43C447.884 648.321 458.347 661.739 470 674C471.237 675.41 472.467 676.826 473.688 678.25C476.952 682.012 480.43 685.528 484 689C487.307 686.263 488.868 682.6 490.688 678.812C491.008 678.158 491.328 677.504 491.658 676.83C492.444 675.223 493.223 673.612 494 672C493.201 671.478 492.402 670.956 491.578 670.418C483.337 664.933 476.115 658.869 469 652C468.282 651.333 467.564 650.667 466.824 649.98C437.457 622.025 421.889 578.536 413 540C412.67 540 412.34 540 412 540ZM112 541C111.825 541.688 111.649 542.376 111.469 543.085C98.7642 592.548 77.2716 642.009 33.0001 671C33.5827 675.423 35.2677 678.516 37.5626 682.312C38.2032 683.381 38.8439 684.45 39.504 685.551C39.9977 686.359 40.4914 687.167 41.0001 688C50.3863 680.211 58.5403 671.647 66.0001 662C66.5279 661.321 67.0558 660.643 67.5997 659.944C76.19 648.827 83.6461 637.532 90.0001 625C90.342 624.334 90.6839 623.668 91.0362 622.981C99.8863 605.565 106.486 586.993 112.688 568.5C113.039 567.493 113.39 566.485 113.752 565.447C116.567 556.783 116.364 549.521 113 541C112.67 541 112.34 541 112 541ZM373 543C374 545 374 545 374 545L373 543ZM118 561C117.689 561.97 117.378 562.94 117.057 563.94C110.917 583.017 104.758 601.928 96.0001 620C95.345 621.353 95.345 621.353 94.6768 622.734C88.7314 634.856 82.0718 646.176 74.0001 657C73.3274 657.906 73.3274 657.906 72.6412 658.83C63.9956 670.374 54.3115 680.923 44.0001 691C50.2395 708.496 68.7194 726.25 83.0001 738C83.856 738.744 84.7119 739.488 85.5938 740.254C98.3115 751.177 112.155 760.237 127 768C127.634 768.336 128.268 768.672 128.921 769.018C148.144 779.071 169.55 785.857 191 789C192.151 789.174 193.303 789.349 194.489 789.529C204.86 790.976 215.037 791.355 225.5 791.312C226.393 791.311 227.287 791.31 228.207 791.309C247.458 791.261 266.692 790.55 285.925 789.782C288.284 789.689 290.643 789.599 293.002 789.509C345.9 787.484 396.134 777.677 438 743C438.874 742.278 438.874 742.278 439.766 741.542C454.913 728.96 467.553 715.045 479 699C479.621 698.141 480.243 697.283 480.883 696.398C482.251 694.117 482.251 694.117 481.504 692.004C479.534 689.379 477.312 687.205 474.938 684.937C470.331 680.45 466.174 675.764 462.168 670.723C460.762 668.957 459.328 667.213 457.863 665.496C432.215 635.336 418.889 598.19 407 561C405.266 563.601 404.407 565.428 403.441 568.332C393.125 598.494 377.525 625.401 355.46 648.473C354.475 649.503 353.496 650.538 352.521 651.578C331.601 673.838 305.041 689.947 277 701.625C275.949 702.076 274.899 702.526 273.816 702.99C265.376 706.393 259.803 706.642 251.379 703.285C249.766 702.56 248.161 701.818 246.563 701.062C245.701 700.664 244.84 700.266 243.953 699.856C211.144 684.433 180.213 661.919 158 633C157.568 632.439 157.137 631.879 156.692 631.301C149.764 622.249 143.607 612.921 138 603C137.637 602.37 137.274 601.739 136.9 601.09C129.574 588.292 124.263 574.75 119 561C118.67 561 118.34 561 118 561ZM203 629C209.604 651.547 232.741 671.007 252 683C252.935 683.601 253.869 684.201 254.832 684.82C258.801 687.391 258.801 687.391 263.359 687.797C273.687 684.68 282.715 677.661 291 671C291.73 670.425 292.459 669.85 293.211 669.258C303.441 660.807 315.27 646.662 320 634C319.505 632.515 319.505 632.515 319 631C317.654 631.944 317.654 631.944 316.281 632.906C302.714 642.273 288.465 649.332 273 655C272.042 655.423 271.085 655.846 270.098 656.281C259.86 660.072 250.387 655.227 241 651C228.754 645.303 217.093 638.981 206.352 630.766C204.357 628.9 204.357 628.9 203 629Z" fill="#664937"/>
<path d="M1026.4 93.6616C1028.03 95.0247 1029.67 96.3665 1031.32 97.707C1037.04 102.402 1042.55 107.303 1047.88 112.437C1048.41 112.934 1048.94 113.43 1049.48 113.941C1050.93 115.371 1050.93 115.371 1053 118C1052.71 121.553 1051.09 123.275 1048.61 125.715C1047.58 126.744 1047.58 126.744 1046.52 127.795C1045.43 128.855 1045.43 128.855 1044.31 129.937C1043.6 130.641 1042.9 131.344 1042.17 132.068C1038.26 135.919 1034.27 139.56 1030 143C1026.03 141.389 1023.33 138.616 1020.31 135.687C1012.69 128.486 1004.48 122.158 996 116C995.379 115.549 994.758 115.098 994.118 114.633C964.709 93.5467 929.758 81.4289 894 77C892.952 76.8685 891.904 76.737 890.824 76.6015C887.879 76.3001 884.959 76.1202 882 76C881.352 75.9728 880.704 75.9455 880.037 75.9175C838.686 74.4218 796.901 86.191 765 113C764.25 113.603 763.5 114.207 762.727 114.828C744.301 130.215 732.24 154.257 730 178C728.148 208.532 734.565 233.949 754.647 257.313C789.478 296.296 849.146 307.541 897 322C967.856 343.418 967.856 343.418 989 354C990.238 354.608 990.238 354.608 991.502 355.229C1027.23 372.87 1060.75 400.04 1074 439C1078.93 454.781 1081.31 470.508 1082 487C1082.04 487.96 1082.09 488.921 1082.13 489.91C1083 530.175 1069.73 564.931 1042 594C1002.71 634.195 939.701 648.474 885.524 649.322C847.737 649.74 811.003 644.699 775 633C773.693 632.581 773.693 632.581 772.359 632.153C743.302 622.738 687.326 602.774 672.08 573.216C672 571 672 571 673.998 568.435C674.964 567.47 675.943 566.518 676.934 565.578C677.446 565.073 677.957 564.568 678.485 564.048C680.124 562.437 681.78 560.843 683.437 559.25C684.551 558.161 685.664 557.071 686.775 555.98C689.504 553.307 692.248 550.649 695 548C698.573 549.683 700.952 551.692 703.812 554.438C715.265 565.097 728.264 573.581 742 581C742.749 581.406 743.497 581.811 744.269 582.229C776.076 599.132 812.5 607.68 848 612C848.832 612.105 849.664 612.209 850.522 612.317C860.037 613.353 869.627 613.244 879.187 613.25C880.124 613.251 881.06 613.251 882.025 613.252C896.554 613.235 910.679 612.632 925 610C926.47 609.743 926.47 609.743 927.969 609.48C961.183 603.561 991.62 591.788 1016 568C1016.65 567.408 1017.31 566.817 1017.98 566.207C1037.24 548.356 1044.83 521.777 1045.9 496.352C1046.84 464.767 1036.31 439.071 1015 416C1003.98 404.472 989.787 396.246 975.812 388.812C974.979 388.362 974.145 387.912 973.286 387.448C955.757 378.384 936.669 372.343 917.937 366.312C915.81 365.622 913.683 364.932 911.556 364.241C897.168 359.587 882.726 355.122 868.25 350.75C798.187 329.587 798.187 329.587 771 315C770.403 314.682 769.806 314.364 769.19 314.037C754.964 306.396 742.61 297.185 731 286C730.295 285.358 729.59 284.716 728.863 284.055C706.495 263.093 695.206 232.539 693.836 202.388C693.378 187.116 693.305 171.912 697 157C697.166 156.298 697.333 155.596 697.504 154.873C702.486 134.374 713.298 115.927 727 100C727.81 99.0448 728.619 98.0896 729.453 97.1055C736.192 89.3404 743.673 83.0051 752 77C752.604 76.5641 753.207 76.1283 753.829 75.6792C763.079 69.0851 772.707 63.777 783 59C784.093 58.4779 785.186 57.9558 786.312 57.418C862.785 22.5827 962.652 40.2644 1026.4 93.6616Z" fill="#664937"/>
<path d="M2152 49.0001C2153.02 50.7086 2153.02 50.7086 2153.96 52.6556C2154.3 53.3681 2154.64 54.0806 2154.99 54.8147C2156.54 58.1681 2158.01 61.5469 2159.44 64.9493C2159.76 65.7021 2160.08 66.455 2160.41 67.2306C2161.46 69.7152 2162.51 72.2014 2163.56 74.6876C2164.32 76.4713 2165.07 78.255 2165.83 80.0386C2171.67 93.8226 2177.48 107.617 2183.3 121.41C2190.48 138.446 2197.72 155.457 2204.98 172.464C2211.9 188.702 2218.79 204.953 2225.65 221.22C2232.23 236.83 2238.86 252.418 2245.5 268C2252.53 284.487 2259.54 300.984 2266.5 317.5C2273.51 334.12 2280.55 350.721 2287.62 367.313C2288.11 368.462 2288.6 369.611 2289.11 370.795C2291.05 375.343 2292.99 379.89 2294.92 384.438C2299.2 394.477 2303.48 404.519 2307.75 414.563C2308.09 415.36 2308.43 416.157 2308.78 416.978C2314.64 430.781 2320.47 444.599 2326.3 458.418C2333.04 474.397 2339.83 490.358 2346.62 506.313C2347.11 507.461 2347.6 508.609 2348.11 509.791C2350.05 514.34 2351.99 518.889 2353.92 523.438C2365.13 549.728 2376.29 576.037 2387.41 602.367C2387.78 603.257 2388.16 604.146 2388.54 605.062C2389.28 606.808 2390.02 608.555 2390.75 610.301C2392.6 614.687 2394.46 619.067 2396.34 623.439C2396.71 624.313 2397.08 625.186 2397.47 626.087C2398.18 627.746 2398.89 629.404 2399.61 631.06C2402 636.663 2402 636.663 2402 640C2391.77 640 2381.54 640 2371 640C2360.86 616.982 2350.78 593.939 2340.91 570.803C2338.5 565.162 2336.08 559.526 2333.66 553.891C2316.97 514.987 2300.47 476.002 2284 437C2188.96 437 2093.92 437 1996 437C1981.94 470.035 1981.94 470.035 1967.89 503.072C1961.05 519.159 1954.2 535.243 1947.31 551.313C1946.99 552.062 1946.67 552.812 1946.34 553.584C1945.45 555.657 1944.56 557.729 1943.68 559.801C1943.18 560.958 1942.68 562.114 1942.17 563.306C1941.48 564.887 1940.77 566.458 1940 568C1929.44 568 1918.88 568 1908 568C1908.77 563.39 1909.42 560.597 1911.24 556.504C1911.72 555.414 1912.2 554.323 1912.69 553.2C1913.23 551.999 1913.76 550.799 1914.31 549.563C1915.51 546.845 1916.7 544.126 1917.89 541.406C1918.21 540.67 1918.54 539.935 1918.87 539.176C1923.18 529.339 1927.36 519.448 1931.56 509.563C1932.42 507.541 1933.28 505.52 1934.14 503.498C1935.89 499.382 1937.64 495.266 1939.39 491.149C1943.17 482.238 1946.97 473.329 1950.76 464.42C1952.84 459.53 1954.92 454.64 1957 449.75C1957.83 447.792 1958.67 445.833 1959.5 443.875C1959.91 442.906 1960.32 441.936 1960.75 440.938C2002 344 2043.25 247.063 2085.75 147.188C2086.58 145.228 2087.42 143.268 2088.25 141.308C2090.32 136.439 2092.4 131.57 2094.47 126.702C2098.36 117.569 2102.24 108.434 2106.11 99.2907C2107.92 94.9969 2109.74 90.7042 2111.56 86.4117C2112.43 84.3753 2113.29 82.3384 2114.15 80.3008C2127.82 47.8863 2127.82 47.8863 2135.88 44.1251C2142.35 43.744 2147.08 44.6368 2152 49.0001ZM2140 98.0001C2124.36 133.831 2124.36 133.831 2109.06 169.813C2102.6 185.244 2096.04 200.628 2089.44 216C2081.43 234.655 2073.45 253.32 2065.5 272C2057.65 290.448 2049.77 308.886 2041.88 327.313C2040.88 329.632 2039.89 331.952 2038.89 334.272C2034.39 344.781 2029.88 355.288 2025.35 365.788C2023.37 370.389 2021.39 374.991 2019.41 379.594C2018.48 381.768 2017.54 383.942 2016.6 386.115C2015.31 389.093 2014.03 392.074 2012.75 395.055C2012.18 396.38 2012.18 396.38 2011.59 397.732C2011.25 398.535 2010.9 399.337 2010.55 400.164C2010.1 401.209 2010.1 401.209 2009.64 402.276C2008.88 404.007 2008.88 404.007 2009 406C2095.46 406 2181.92 406 2271 406C2268.98 399.944 2266.9 394.164 2264.37 388.34C2264.02 387.53 2263.67 386.72 2263.31 385.885C2262.56 384.144 2261.81 382.403 2261.05 380.663C2259.43 376.917 2257.82 373.168 2256.21 369.418C2255.37 367.475 2254.53 365.531 2253.7 363.588C2249.62 354.134 2245.59 344.663 2241.56 335.188C2241.22 334.372 2240.87 333.557 2240.51 332.717C2235.34 320.54 2230.19 308.353 2225.05 296.163C2214.75 271.736 2204.36 247.343 2193.97 222.957C2185.74 203.664 2177.52 184.368 2169.31 165.071C2168.04 162.094 2166.77 159.118 2165.5 156.141C2157.26 136.791 2149.03 117.438 2141 98.0001C2140.67 98.0001 2140.34 98.0001 2140 98.0001Z" fill="#664937"/>
<path d="M1352 44C1363.55 44 1375.1 44 1387 44C1387 229.13 1387 414.26 1387 605C1582.69 605 1778.38 605 1980 605C1980 616.55 1980 628.1 1980 640C1887.26 640.058 1794.51 640.081 1649.81 640.002C1647.02 640 1644.23 639.998 1641.44 639.996C1598.83 639.966 1556.23 639.92 1513.62 639.815C1510.49 639.807 1507.36 639.799 1504.23 639.792C1503.46 639.79 1502.7 639.788 1501.9 639.786C1490.32 639.758 1478.73 639.74 1467.14 639.729C1454.04 639.717 1440.94 639.691 1427.84 639.646C1421.2 639.623 1414.57 639.607 1407.93 639.608C1401.9 639.609 1395.86 639.591 1389.83 639.559C1387.65 639.55 1385.47 639.549 1383.29 639.554C1380.33 639.561 1377.38 639.543 1374.43 639.519C1373.58 639.527 1372.73 639.534 1371.86 639.542C1366.19 639.461 1361.7 638.28 1357 635C1353.64 630.772 1351.87 627.292 1351.88 621.896C1351.87 621.055 1351.87 620.214 1351.87 619.347C1351.87 618.421 1351.87 617.495 1351.88 616.542C1351.88 615.555 1351.87 614.569 1351.87 613.553C1351.87 610.217 1351.88 606.881 1351.88 603.544C1351.88 601.141 1351.88 598.738 1351.88 596.335C1351.88 591.093 1351.88 585.851 1351.88 580.61C1351.89 572.816 1351.89 565.022 1351.89 557.228C1351.88 544.118 1351.89 531.008 1351.89 517.899C1351.9 504.914 1351.9 491.93 1351.91 478.945C1351.91 478.139 1351.91 477.332 1351.91 476.501C1351.91 472.405 1351.91 468.308 1351.91 464.212C1351.91 435.18 1351.92 406.148 1351.92 377.116C1351.93 348.908 1351.94 320.7 1351.95 292.492C1351.95 291.623 1351.95 290.754 1351.95 289.859C1351.95 281.131 1351.95 272.402 1351.95 263.674C1351.95 245.893 1351.95 228.112 1351.96 210.331C1351.96 209.514 1351.96 208.696 1351.96 207.854C1351.97 153.236 1351.98 98.6179 1352 44Z" fill="#664937"/>
<path d="M1540 44C1550.89 44 1561.78 44 1573 44C1576.56 51.7078 1580.06 59.3513 1583.29 67.1875C1583.68 68.1117 1584.06 69.0359 1584.46 69.9881C1585.28 71.9647 1586.09 73.9417 1586.91 75.9191C1589.12 81.2649 1591.35 86.607 1593.57 91.9492C1594.02 93.0416 1594.47 94.134 1594.94 95.2594C1599.46 106.128 1604.04 116.972 1608.62 127.812C1614.78 142.362 1620.91 156.923 1627 171.5C1633.14 186.18 1639.3 200.845 1645.5 215.5C1652.07 231.042 1658.61 246.598 1665.11 262.167C1670.88 275.957 1676.68 289.733 1682.5 303.5C1688.71 318.198 1694.9 332.904 1701.06 347.625C1701.43 348.509 1701.8 349.393 1702.18 350.304C1705.16 357.424 1708.14 364.545 1711.11 371.667C1713.72 377.903 1716.33 384.139 1718.94 390.375C1719.31 391.259 1719.68 392.143 1720.06 393.053C1726.23 407.815 1732.45 422.56 1738.68 437.298C1743.15 447.86 1747.6 458.427 1752.02 469.008C1752.43 469.988 1752.84 470.969 1753.27 471.979C1755.22 476.663 1757.18 481.347 1759.13 486.033C1762.62 494.417 1766.15 502.773 1770 511C1770.8 509.096 1771.61 507.192 1772.41 505.288C1773.14 503.553 1773.88 501.819 1774.61 500.084C1776.71 495.111 1778.81 490.138 1780.91 485.165C1785.22 474.943 1789.54 464.723 1793.86 454.504C1804.63 429.026 1815.33 403.521 1826 378C1828.98 370.875 1831.96 363.749 1834.94 356.625C1835.31 355.741 1835.68 354.857 1836.06 353.947C1842.24 339.174 1848.46 324.418 1854.7 309.668C1860.49 295.957 1866.26 282.234 1872 268.5C1878.53 252.874 1885.1 237.266 1891.7 221.667C1897.49 207.956 1903.26 194.234 1909 180.5C1915.53 164.881 1922.1 149.279 1928.69 133.686C1934.66 119.574 1940.59 105.448 1946.5 91.3125C1957.19 65.7534 1957.19 65.7534 1961.56 55.375C1962.01 54.308 1962.46 53.2411 1962.92 52.1418C1963.52 50.722 1963.52 50.722 1964.13 49.2734C1964.47 48.4631 1964.81 47.6528 1965.16 46.8179C1966 45 1966 45 1967 44C1969.45 43.9116 1971.87 43.8847 1974.32 43.9023C1975.05 43.9037 1975.78 43.9052 1976.53 43.9066C1978.88 43.9122 1981.22 43.9248 1983.56 43.9375C1985.15 43.9425 1986.73 43.9471 1988.32 43.9512C1992.21 43.9622 1996.11 43.9795 2000 44C1999.39 49.3201 1997.63 53.6623 1995.49 58.5078C1995.14 59.3331 1994.78 60.1583 1994.41 61.0086C1993.64 62.787 1992.87 64.5641 1992.09 66.34C1990.01 71.0995 1987.96 75.8688 1985.9 80.6367C1985.48 81.6027 1985.06 82.5687 1984.63 83.5639C1980.85 92.3247 1977.16 101.122 1973.5 109.937C1972.89 111.4 1972.29 112.862 1971.68 114.325C1970.75 116.559 1969.82 118.794 1968.9 121.028C1965.03 130.339 1961.14 139.639 1957.25 148.937C1956.88 149.833 1956.5 150.729 1956.11 151.653C1949.87 166.558 1943.6 181.447 1937.3 196.331C1931.51 210.042 1925.74 223.765 1920 237.5C1913.47 253.126 1906.9 268.734 1900.3 284.333C1894.51 298.044 1888.74 311.766 1883 325.5C1876.47 341.126 1869.9 356.734 1863.3 372.333C1857.51 386.044 1851.74 399.766 1846 413.5C1839.88 428.137 1833.74 442.762 1827.56 457.375C1827.17 458.304 1826.78 459.232 1826.37 460.189C1822.36 469.686 1818.35 479.182 1814.33 488.677C1813.11 491.566 1811.89 494.456 1810.67 497.346C1809.07 501.122 1807.47 504.898 1805.87 508.672C1802.08 517.624 1798.34 526.593 1794.72 535.617C1793.71 538.103 1792.71 540.589 1791.7 543.074C1790.78 545.365 1789.88 547.664 1788.98 549.963C1786.12 557.122 1783.72 562.696 1777 567C1771.97 568.676 1767.66 568.606 1762.75 566.812C1757.03 563.046 1754.82 557.803 1752.34 551.688C1752 550.863 1751.66 550.039 1751.3 549.19C1750.17 546.463 1749.06 543.731 1747.94 541C1747.14 539.068 1746.34 537.136 1745.54 535.205C1744.29 532.189 1743.04 529.173 1741.79 526.156C1737.81 516.513 1733.75 506.901 1729.68 497.293C1722.71 480.824 1715.78 464.335 1708.89 447.833C1703.12 434.043 1697.32 420.267 1691.5 406.5C1684.93 390.958 1678.39 375.402 1671.89 359.833C1666.12 346.043 1660.32 332.267 1654.5 318.5C1647.93 302.958 1641.39 287.402 1634.89 271.833C1629.12 258.043 1623.32 244.267 1617.5 230.5C1610.93 214.958 1604.39 199.402 1597.89 183.833C1592.12 170.043 1586.32 156.267 1580.5 142.5C1573.43 125.771 1566.39 109.028 1559.39 92.2698C1558.66 90.5275 1557.93 88.7852 1557.2 87.043C1556.85 86.1978 1556.5 85.3526 1556.13 84.4818C1553.76 78.8121 1551.38 73.1487 1548.98 67.4883C1548.07 65.3195 1547.15 63.1507 1546.24 60.9819C1545.67 59.6324 1545.1 58.2835 1544.52 56.9351C1543.75 55.113 1542.98 53.289 1542.21 51.4648C1541.78 50.4503 1541.35 49.4357 1540.91 48.3904C1540 46 1540 46 1540 44Z" fill="#664937"/>
<path d="M1184 44C1195.55 44 1207.1 44 1219 44C1219 240.68 1219 437.36 1219 640C1207.45 640 1195.9 640 1184 640C1184 443.32 1184 246.64 1184 44Z" fill="#664937"/>
<path d="M979.114 720.796C983.282 727.367 986.455 735.825 987.724 746.659C988.488 761.123 987.818 772.639 983.774 784.601C979.821 793.915 975.504 798.507 969.667 799.891C963.477 800.524 958.324 798.498 953.16 790.925C948.461 780.642 946.446 771.995 946 757.725C946.108 746.491 947.211 736.772 950.737 728.182C958.569 712.944 969.751 709.206 979.114 720.796ZM958.098 736.119C955.319 744.028 954.166 750.728 954.086 760.624C955.634 771.123 957.907 777.588 962.418 783.415C966.869 785.451 970.501 783.804 974.639 779.99C977.586 774.923 978.623 771.214 979.824 763.522C980.114 753.204 979.578 746.561 976.553 738.359C970.364 728.222 964.882 726.046 958.098 736.119Z" fill="#664937"/>
<path d="M1744.03 720.699C1748.24 727.266 1751.44 735.718 1752.72 746.545C1753.49 761 1752.82 772.509 1748.73 784.464C1744.23 794.977 1739.14 799.239 1732.53 800C1726.11 799.656 1720.13 795.285 1715.39 786.044C1711.37 771.108 1709.92 759.446 1711.84 742.332C1713.84 730.522 1717.64 722.842 1722.81 717.053C1729.82 712.248 1737.63 712.863 1744.03 720.699ZM1721 742.069C1719.42 748.052 1718.95 752.306 1718.82 759.185C1720.4 769.982 1722.15 776.558 1726.8 782.357C1731.12 785.112 1733.95 784.94 1738.01 781.172C1741.82 776.579 1743.52 772.537 1744.74 763.398C1744.92 753.752 1744.35 746.584 1742 738.251C1738.74 731.93 1736.2 730.078 1731.84 728.903C1727.14 730.119 1724.24 734.991 1721 742.069Z" fill="#664937"/>
<path d="M2118 716.583C2123.95 716.385 2123.95 716.385 2130.01 716.183C2131.25 716.125 2132.49 716.067 2133.77 716.007C2141.21 715.887 2145.73 717.285 2151.44 728.173C2156.2 739.826 2156.08 749.621 2155.97 764.841C2155.45 776.658 2153.18 781.827 2149.27 789.586C2144.9 796.012 2141.38 798.117 2136.09 797.995C2134.66 797.979 2134.66 797.979 2133.21 797.963C2132.01 797.924 2130.81 797.885 2129.58 797.845C2125.76 797.757 2121.94 797.669 2118 797.579C2118 770.85 2118 744.121 2118 716.583ZM2125.93 729.372C2125.93 746.956 2125.93 764.541 2125.93 782.658C2135.03 784.51 2135.03 784.51 2143.51 778.928C2146.75 771.977 2148.02 766.116 2148.16 756.281C2148.07 749.228 2147.66 744.781 2145.68 739.096C2139.44 727.392 2134.29 729.372 2125.93 729.372Z" fill="#664937"/>
<path d="M835 716.588C840.937 716.39 840.937 716.39 846.995 716.189C848.232 716.13 849.469 716.072 850.744 716.012C857.506 715.903 862.371 716.298 867.51 726.72C867.983 727.992 868.456 729.264 868.944 730.575C869.673 732.491 869.673 732.491 870.416 734.446C873.932 744.684 872.964 757.684 872.592 769.871C870.926 781.035 868.07 786.519 863.688 793.315C860.012 797.141 857.133 798.088 853.066 797.994C851.638 797.978 851.638 797.978 850.182 797.962C848.987 797.923 847.793 797.884 846.562 797.844C842.747 797.756 838.931 797.668 835 797.578C835 770.851 835 744.125 835 716.588ZM842.914 729.376C842.914 746.959 842.914 764.542 842.914 782.658C852.004 784.51 852.004 784.51 860.473 778.929C863.996 771.34 864.586 768.086 864.987 757.216C864.876 749.159 864.148 744.24 861.71 737.901C855.465 728.242 850.886 729.376 842.914 729.376Z" fill="#664937"/>
<path d="M1423.2 718.268C1428.07 724.295 1431.91 733.016 1433.69 744.502C1434.34 760.233 1434.34 771.891 1429.76 784.576C1425.13 795.029 1420.34 799.412 1413.68 800C1407.67 799.652 1403.12 796.349 1398.52 788.004C1393.55 775.18 1392.84 766.259 1393.03 749.684C1393.59 739.478 1394.94 732.751 1398.34 725.519C1405.48 714.076 1414.89 710.213 1423.2 718.268ZM1402.88 740.415C1400.54 749.497 1400.41 757.558 1401.28 767.703C1402.95 774.866 1405.3 779.162 1408.47 783.39C1413.46 785.634 1417.46 784.502 1421.78 778.644C1425.1 771.323 1425.74 767.739 1426.2 757.42C1426.08 748.258 1424.76 743.006 1421.91 736.065C1414.66 726.129 1409.29 728.452 1402.88 740.415Z" fill="#664937"/>
<path d="M1456 717C1463 717 1463 717 1464.8 719.469C1465.23 720.61 1465.66 721.752 1466.1 722.928C1466.84 724.833 1466.84 724.833 1467.59 726.775C1468.07 728.122 1468.56 729.468 1469.06 730.855C1469.55 732.136 1470.04 733.416 1470.55 734.735C1474.16 744.248 1477.55 754.103 1481 763.895C1481.33 748.419 1481.66 732.944 1482 717C1484.64 717 1487.28 717 1490 717C1490 743.73 1490 770.46 1490 798C1483 798 1483 798 1480.95 794.853C1480.39 793.341 1479.83 791.83 1479.25 790.273C1478.6 788.556 1477.94 786.838 1477.27 785.069C1476.14 781.974 1476.14 781.974 1475 778.816C1474.02 776.174 1473.03 773.535 1472.05 770.897C1469.34 763.635 1466.67 756.306 1464 748.974C1463.67 765.152 1463.34 781.331 1463 798C1460.69 798 1458.38 798 1456 798C1456 771.27 1456 744.54 1456 717Z" fill="#664937"/>
<path d="M1774 716.78C1779.75 716.518 1779.75 716.518 1785.62 716.252C1786.82 716.175 1788.02 716.099 1789.26 716.019C1795.5 715.882 1799.3 716.236 1804 725.218C1807.16 732.998 1807.52 740.139 1807.36 750.062C1806.8 757.366 1805.28 761.919 1803 767.408C1802.01 768.104 1801.02 768.801 1800 769.518C1800.49 771.144 1800.99 772.77 1801.5 774.446C1802.14 776.561 1802.78 778.677 1803.44 780.857C1804.08 782.961 1804.71 785.066 1805.37 787.235C1807 792.723 1807 792.723 1808 796.942C1804.84 798.168 1802.14 798.527 1799 796.942C1796.07 791.4 1793.92 785.183 1792 777.956C1792 776.564 1792 775.171 1792 773.737C1788.7 773.737 1785.4 773.737 1782 773.737C1782 781.394 1782 789.052 1782 796.942C1779.36 796.942 1776.72 796.942 1774 796.942C1774 770.488 1774 744.035 1774 716.78ZM1782 729.437C1782 739.879 1782 750.321 1782 761.08C1788.16 761.68 1792.73 761.934 1798 754.751C1799.41 747.591 1799.41 747.591 1799 739.984C1796.7 733.168 1794.81 730.938 1791 729.437C1789.42 729.299 1787.83 729.256 1786.25 729.305C1784.85 729.348 1783.45 729.392 1782 729.437Z" fill="#664937"/>
<path d="M2032 716.772C2035.65 716.598 2039.3 716.424 2043.06 716.245C2044.2 716.169 2045.34 716.092 2046.51 716.013C2052.9 715.866 2056.89 716.848 2062 725.196C2064.71 732.975 2064.52 741.59 2064.47 750.947C2063.72 760.228 2061.29 765.49 2058 771.53C2058.76 773.738 2058.76 773.738 2059.53 775.989C2060.51 778.865 2060.51 778.865 2061.5 781.798C2062.15 783.704 2062.8 785.609 2063.47 787.573C2065 792.591 2065 792.591 2065 796.804C2061.81 798.174 2059.16 798.609 2056 796.804C2053.96 791.694 2052.47 786.289 2050.84 780.572C2049.19 775.387 2049.19 775.387 2046.57 773.875C2043.81 773.211 2043.81 773.211 2040 773.637C2040 781.282 2040 788.927 2040 796.804C2037.36 796.804 2034.72 796.804 2032 796.804C2032 770.393 2032 743.983 2032 716.772ZM2040 729.408C2040 739.834 2040 750.259 2040 761C2045.18 761.376 2049.15 761.165 2054 756.788C2056.36 752.708 2056.36 752.708 2056.31 745.336C2056.29 738.117 2056.29 738.117 2054.81 733.884C2050.31 728.004 2045.11 729.226 2040 729.408Z" fill="#664937"/>
<path d="M1076.85 717C1078.9 717.069 1080.95 717.138 1083 717.208C1087.54 736.055 1091.89 755.048 1096 774.347C1096.4 776.204 1096.8 778.062 1097.2 779.976C1097.57 781.709 1097.94 783.441 1098.31 785.227C1098.64 786.769 1098.96 788.312 1099.3 789.901C1100 793.748 1100 793.748 1100 798C1097.03 798 1094.06 798 1091 798C1090.01 793.089 1089.02 788.177 1088 783.117C1082.06 783.117 1076.12 783.117 1070 783.117C1069.01 788.029 1068.02 792.94 1067 798C1064.03 798 1061.06 798 1058 798C1059.44 788.237 1061.23 778.958 1063.22 769.655C1063.53 768.215 1063.83 766.775 1064.15 765.291C1064.79 762.272 1065.43 759.255 1066.08 756.238C1067.07 751.605 1068.05 746.966 1069.03 742.327C1069.66 739.388 1070.28 736.449 1070.91 733.511C1071.2 732.12 1071.5 730.729 1071.8 729.296C1074.38 717.278 1074.38 717.278 1076.85 717ZM1078 738.469C1077.16 742.274 1076.33 746.084 1075.5 749.897C1075.04 752.018 1074.57 754.139 1074.09 756.325C1072.87 761.509 1072.87 761.509 1073 766.108C1076.96 766.108 1080.92 766.108 1085 766.108C1083.35 756.987 1081.7 747.866 1080 738.469C1079.34 738.469 1078.68 738.469 1078 738.469Z" fill="#664937"/>
<path d="M1872 717C1874.97 717 1877.94 717 1881 717C1883.29 727.501 1885.56 738.009 1887.84 748.524C1888.61 752.1 1889.39 755.675 1890.16 759.248C1891.28 764.38 1892.39 769.52 1893.5 774.661C1893.85 776.26 1894.2 777.859 1894.56 779.506C1897 790.877 1897 790.877 1897 798C1894.36 798 1891.72 798 1889 798C1886 785.743 1886 785.743 1886 780.947C1879.73 780.947 1873.46 780.947 1867 780.947C1866.34 785.168 1865.68 789.388 1865 793.737C1864.67 795.144 1864.34 796.551 1864 798C1861.03 798 1858.06 798 1855 798C1860.49 770.82 1866.02 743.713 1872 717ZM1876 736.184C1873.03 750.956 1873.03 750.956 1870 766.026C1873.96 766.026 1877.92 766.026 1882 766.026C1879.69 750.96 1879.69 750.96 1877 736.184C1876.67 736.184 1876.34 736.184 1876 736.184Z" fill="#664937"/>
<path d="M1216 717C1218.97 717 1221.94 717 1225 717C1226.78 725.085 1228.56 733.174 1230.33 741.267C1230.94 744.01 1231.54 746.752 1232.14 749.493C1235.65 765.42 1239.02 781.375 1242 797.792C1239.03 797.792 1236.06 797.792 1233 797.792C1230 785.567 1230 785.567 1230 780.783C1223.73 780.783 1217.46 780.783 1211 780.783C1210.34 785.695 1209.68 790.606 1209 795.666C1208 797.792 1208 797.792 1206.15 798C1204.1 797.931 1202.05 797.862 1200 797.792C1200.66 788.027 1202.44 779.643 1204.38 770.776C1204.71 769.233 1205.04 767.691 1205.38 766.102C1206.44 761.202 1207.5 756.309 1208.56 751.416C1209.28 748.085 1210 744.753 1210.72 741.421C1212.47 733.275 1214.23 725.136 1216 717ZM1220 736.135C1219.16 739.893 1218.33 743.66 1217.5 747.43C1217.04 749.527 1216.57 751.623 1216.09 753.783C1214.81 759.476 1214.81 759.476 1215 765.901C1218.63 765.901 1222.26 765.901 1226 765.901C1225.24 757.772 1224.52 752.328 1222.94 745.038C1222.58 743.358 1222.21 741.678 1221.84 739.947C1221.56 738.689 1221.29 737.431 1221 736.135C1220.67 736.135 1220.34 736.135 1220 736.135Z" fill="#664937"/>
<path d="M791 717C793.97 717 796.94 717 800 717C801.782 725.085 803.56 733.174 805.334 741.267C805.937 744.01 806.54 746.752 807.144 749.493C810.654 765.42 814.018 781.375 817 797.792C814.03 797.792 811.06 797.792 808 797.792C805 785.567 805 785.567 805 780.783C798.73 780.783 792.46 780.783 786 780.783C785.34 785.695 784.68 790.606 784 795.666C783 797.792 783 797.792 781.152 798C779.102 797.931 777.051 797.862 775 797.792C775.657 788.027 777.444 779.643 779.379 770.776C779.71 769.233 780.042 767.691 780.384 766.102C781.438 761.202 782.5 756.309 783.562 751.416C784.281 748.085 784.999 744.753 785.717 741.421C787.472 733.275 789.234 725.136 791 717ZM795 736.135C794.16 739.893 793.328 743.66 792.5 747.43C792.036 749.527 791.572 751.623 791.094 753.783C789.812 759.476 789.812 759.476 790 765.901C793.63 765.901 797.26 765.901 801 765.901C800.235 757.772 799.524 752.328 797.938 745.038C797.575 743.358 797.213 741.678 796.84 739.947C796.563 738.689 796.286 737.431 796 736.135C795.67 736.135 795.34 736.135 795 736.135Z" fill="#664937"/>
<path d="M2275 717C2277.97 717 2280.94 717 2284 717C2286.42 728.162 2288.84 739.326 2291.26 750.493C2292.09 754.295 2292.91 758.096 2293.74 761.896C2294.92 767.346 2296.1 772.798 2297.28 778.25C2297.65 779.96 2298.02 781.67 2298.41 783.431C2301 795.424 2301 795.424 2301 797.792C2298.03 797.792 2295.06 797.792 2292 797.792C2289 785.567 2289 785.567 2289 780.783C2282.73 780.783 2276.46 780.783 2270 780.783C2269.34 785.695 2268.68 790.606 2268 795.666C2267 797.792 2267 797.792 2265.15 798C2263.1 797.931 2261.05 797.862 2259 797.792C2259.66 788.027 2261.44 779.643 2263.38 770.776C2263.71 769.233 2264.04 767.691 2264.38 766.102C2265.44 761.202 2266.5 756.309 2267.56 751.416C2268.28 748.085 2269 744.753 2269.72 741.421C2271.47 733.275 2273.23 725.136 2275 717ZM2279 736.135C2278.16 739.893 2277.33 743.66 2276.5 747.43C2276.04 749.527 2275.57 751.623 2275.09 753.783C2273.81 759.476 2273.81 759.476 2274 765.901C2277.63 765.901 2281.26 765.901 2285 765.901C2284.24 757.772 2283.52 752.328 2281.94 745.038C2281.58 743.358 2281.21 741.678 2280.84 739.947C2280.56 738.689 2280.29 737.431 2280 736.135C2279.67 736.135 2279.34 736.135 2279 736.135Z" fill="#664937"/>
<path d="M1275 717C1284.57 717 1294.14 717 1304 717C1304 721.221 1304 725.441 1304 729.789C1297.07 729.789 1290.14 729.789 1283 729.789C1283 736.12 1283 742.451 1283 748.974C1288.94 748.974 1294.88 748.974 1301 748.974C1301 753.898 1301 758.822 1301 763.895C1295.06 763.895 1289.12 763.895 1283 763.895C1283 770.226 1283 776.556 1283 783.079C1289.93 783.079 1296.86 783.079 1304 783.079C1304 788.003 1304 792.927 1304 798C1294.43 798 1284.86 798 1275 798C1275 771.27 1275 744.54 1275 717Z" fill="#664937"/>
<path d="M1562.1 717C1564.72 717 1567.33 717 1570.03 717C1570.05 718.618 1570.06 720.236 1570.08 721.903C1570.15 729.239 1570.24 736.573 1570.34 743.908C1570.36 746.454 1570.39 749.001 1570.41 751.624C1570.44 754.072 1570.48 756.521 1570.52 759.043C1570.54 761.298 1570.57 763.553 1570.59 765.876C1571.07 772.591 1571.75 775.547 1574 780.313C1577.37 782.142 1579.84 783.053 1583.23 781.104C1586.13 776.075 1586.78 769.517 1587.2 761.803C1587.23 759.736 1587.26 757.669 1587.3 755.54C1587.33 753.289 1587.37 751.037 1587.41 748.718C1587.44 746.391 1587.47 744.063 1587.5 741.666C1587.54 739.297 1587.58 736.929 1587.62 734.489C1587.71 728.66 1587.8 722.83 1587.88 717C1590.49 717 1593.11 717 1595.81 717C1595.86 725.486 1595.9 733.971 1595.93 742.457C1595.95 744.85 1595.96 747.242 1595.98 749.707C1596.06 778.647 1596.06 778.647 1592.25 788.672C1591.67 789.657 1591.08 790.641 1590.48 791.656C1589.9 792.673 1589.32 793.691 1588.72 794.739C1584.33 800.621 1579.03 800.587 1574 799.306C1569.38 796.027 1565.5 791.758 1563.09 782.423C1561.98 775.338 1561.99 770.009 1562 762.547C1562.01 759.901 1562.01 757.256 1562.01 754.53C1562.02 751.765 1562.03 748.999 1562.04 746.15C1562.04 743.332 1562.05 740.514 1562.05 737.696C1562.06 730.797 1562.08 723.899 1562.1 717Z" fill="#664937"/>
<path d="M1974.35 717C1976.94 717 1979.52 717 1982.19 717C1982.2 718.539 1982.21 720.079 1982.23 721.665C1982.3 728.664 1982.4 735.661 1982.49 742.659C1982.51 745.081 1982.54 747.503 1982.56 749.999C1982.59 752.34 1982.63 754.681 1982.66 757.092C1982.69 759.242 1982.71 761.392 1982.74 763.607C1983.23 770.56 1984.12 774.595 1986.1 780.161C1990.01 782.647 1992.04 783.163 1995.77 779.503C1997.94 776.314 1997.94 776.314 1998.83 771.739C1998.98 767.618 1999.08 763.486 1999.14 759.354C1999.18 756.898 1999.22 754.442 1999.27 751.911C1999.31 749.336 1999.34 746.76 1999.38 744.107C1999.43 741.515 1999.47 738.923 1999.51 736.253C1999.62 729.835 1999.72 723.418 1999.81 717C2002.4 717 2004.98 717 2007.65 717C2007.76 726.123 2007.83 735.245 2007.89 744.37C2007.94 748.225 2007.94 748.225 2007.99 752.158C2008.07 767.442 2007.75 777.871 2003.73 790.688C1999.06 798.415 1994.35 800.517 1988.51 799.899C1984.48 798.576 1981.5 796.039 1978.27 790.688C1973.58 775.72 1973.88 762.002 1974.11 744.37C1974.12 741.734 1974.14 739.099 1974.16 736.384C1974.21 729.921 1974.27 723.461 1974.35 717Z" fill="#664937"/>
<path d="M1539.63 721.11C1538.68 725.998 1537.74 730.886 1536.77 735.922C1536 735.224 1535.23 734.525 1534.44 733.806C1530.05 731.075 1524.77 729.124 1520.54 733.806C1520.86 737.297 1521.17 740.789 1521.5 744.386C1522.48 745.027 1523.45 745.668 1524.46 746.329C1525.76 747.222 1527.06 748.118 1528.36 749.015C1529 749.431 1529.64 749.847 1530.3 750.276C1534.78 753.424 1537.57 757.179 1540.58 765.547C1541.37 776.491 1541.23 780.203 1538.56 789.617C1533.77 799.298 1529.23 800.217 1522.97 799.966C1518.6 798.952 1514.92 795.282 1511 790.94C1511.84 780.888 1511.84 780.888 1512.91 776.127C1513.44 776.585 1513.97 777.044 1514.52 777.516C1519.63 781.652 1523.69 783.516 1529.13 782.475C1530.08 781.079 1531.02 779.682 1531.99 778.243C1532.1 774.09 1532.1 774.09 1531.04 769.779C1527.87 767.12 1524.77 765.268 1521.49 763.476C1516.92 760.722 1514.45 758.137 1511.95 748.618C1511.22 742.059 1511.33 736.179 1511.95 729.574C1518.81 709.152 1530.15 711.596 1539.63 721.11Z" fill="#664937"/>
<path d="M1371.43 720.89C1373 723.348 1373 723.348 1375 729.663C1373.02 733.136 1371.03 736.609 1368.99 740.187C1368.49 739.189 1368 738.19 1367.49 737.161C1364.12 732.735 1360.89 731.498 1356.97 731.768C1352.8 734.903 1350.08 738.257 1347.95 746.502C1346.73 754.726 1346.87 758.609 1348.14 766.892C1350.31 775.237 1350.31 775.237 1353.96 780.179C1359.87 783.458 1362.72 781.289 1367.99 775.97C1371.51 775.97 1372.37 777.705 1375 782.284C1373.61 789.512 1372.36 792.249 1368.99 795.439C1362.92 800.562 1357.48 801.715 1351.24 797.117C1344.97 791.003 1341.3 785.043 1338.62 771.365C1337.52 758.543 1337.72 746.08 1340.56 734.267C1348.05 713.14 1360.36 708.267 1371.43 720.89Z" fill="#664937"/>
<path d="M2237.03 717.968C2240.02 721.399 2240.02 721.399 2243 725.621C2242.6 731.713 2242.21 733.69 2239.95 737.76C2239.32 738.631 2238.68 739.502 2238.03 740.399C2237.06 738.962 2236.1 737.525 2235.1 736.045C2231.3 731.467 2228.45 731.087 2224.18 732.664C2220.7 735.016 2219.17 738.267 2217.13 744.621C2215.76 753.476 2215.83 759.721 2217.32 768.504C2219.96 776.818 2221.73 779.654 2226.27 782.49C2231.27 782.664 2234.67 779.058 2239.02 774.178C2240.33 776.964 2241.65 779.751 2243 782.622C2241.55 790.739 2239.65 793.563 2236.04 797.401C2229.01 801.806 2222.7 800.629 2216.15 793.739C2212.07 788.294 2209.87 781.667 2207.87 772.33C2206.38 757.972 2206.61 744.781 2210.17 731.954C2217.11 715.509 2227.14 709.171 2237.03 717.968Z" fill="#664937"/>
<path d="M1039.4 720.711C1041.31 723.941 1042.05 727.133 1043 731.811C1041 734.593 1039 737.376 1036.94 740.243C1036.44 739.243 1035.94 738.243 1035.42 737.212C1032.02 732.779 1028.76 731.541 1024.81 731.811C1020.67 734.906 1017.63 738.137 1015.72 746.566C1015.14 755.51 1015.29 763.11 1016.79 771.598C1019.53 777.866 1021.94 779.971 1025.82 782.401C1030.52 782.069 1033.45 780.653 1036.94 773.969C1039.59 776.18 1040.77 777.446 1042.24 782.665C1042.49 783.969 1042.74 785.273 1043 786.617C1041.91 788.346 1040.82 790.055 1039.72 791.755C1039.11 792.709 1038.5 793.663 1037.87 794.645C1032.82 801.18 1026.24 800.896 1020.58 798.219C1013.92 793.565 1009.79 784.896 1006.62 771.862C1005.57 757.832 1005.52 743.979 1009.09 731.547C1016.58 711.933 1029.08 709.432 1039.4 720.711Z" fill="#664937"/>
<path d="M1146.05 717.709C1148.52 720.665 1150.24 722.968 1152 727.612C1150.64 734.291 1150.03 736.048 1147.04 740.289C1146.08 738.851 1145.12 737.413 1144.13 735.931C1140.34 731.351 1137.5 730.963 1133.24 732.556C1129.73 734.927 1128.25 738.015 1126.22 744.515C1124.92 753.895 1124.91 761.289 1126.22 770.661C1128.86 778.038 1130.97 780.027 1135.14 782.545C1139.75 782.212 1142.63 780.793 1146.05 774.094C1148.65 776.31 1149.81 777.579 1151.26 782.809C1151.5 784.116 1151.75 785.424 1152 786.771C1146.55 797.014 1141.62 800.422 1134.45 799.959C1128.76 798.684 1124.74 795.107 1120.89 785.978C1116.39 773.455 1115.41 762.257 1116.3 746.628C1118.1 734.1 1121.23 726.532 1126.22 719.161C1132.39 712.943 1139.66 712.203 1146.05 717.709Z" fill="#664937"/>
<path d="M889 717.156C891.97 717.156 894.94 717.156 898 717.156C909 762.425 909 762.425 909 772.364C909.66 772.364 910.32 772.364 911 772.364C911.351 769.911 911.701 767.459 912.062 764.932C913.651 754.767 915.606 745.008 917.625 735.204C917.938 733.678 918.252 732.152 918.574 730.58C920.869 719.557 920.869 719.557 922 717.156C924.671 716.856 927.324 717.065 930 717.156C927.699 732.87 924.775 747.901 921.702 762.993C920.865 767.102 920.036 771.217 919.207 775.333C915.14 795.424 915.14 795.424 914 797.844C911.329 798.144 908.676 797.935 906 797.844C899.463 771.736 894.249 744.517 889 717.156Z" fill="#664937"/>
<path d="M1928.97 717C1936.15 717 1943.33 717 1950.73 717C1950.81 726.534 1950.87 736.065 1950.91 745.6C1950.94 748.293 1950.96 750.986 1950.99 753.76C1951.05 769.671 1951.09 781.939 1946.28 794.762C1942.43 800.912 1937.49 800.483 1932.92 799.243C1930.33 796.94 1928.34 794.2 1926 790.808C1926 782.373 1926 782.373 1927.98 776.046C1930.91 777.338 1932.31 778.69 1934.9 782.373C1938.01 781.708 1938.01 781.708 1940.84 780.264C1941.78 774.243 1942.01 769.911 1942.14 763.632C1942.18 761.655 1942.22 759.677 1942.26 757.64C1942.3 755.58 1942.34 753.521 1942.38 751.4C1942.42 749.316 1942.47 747.232 1942.51 745.086C1942.62 739.942 1942.72 734.797 1942.81 729.653C1938.24 729.653 1933.68 729.653 1928.97 729.653C1928.97 725.477 1928.97 721.302 1928.97 717Z" fill="#664937"/>
<path d="M1662 717C1672.89 717 1683.78 717 1695 717C1695 721.221 1695 725.441 1695 729.789C1690.71 729.789 1686.42 729.789 1682 729.789C1682 752.299 1682 774.808 1682 798C1679.36 798 1676.72 798 1674 798C1674 775.491 1674 752.981 1674 729.789C1670.04 729.789 1666.08 729.789 1662 729.789C1662 725.569 1662 721.348 1662 717Z" fill="#664937"/>
<path d="M1619 717C1621.64 717 1624.28 717 1627 717C1627 738.806 1627 760.612 1627 783.079C1633.6 783.079 1640.2 783.079 1647 783.079C1647 788.003 1647 792.927 1647 798C1637.76 798 1628.52 798 1619 798C1619 771.27 1619 744.54 1619 717Z" fill="#664937"/>
<path d="M2178 717C2180.64 717 2183.28 717 2186 717C2186 743.73 2186 770.46 2186 798C2183.36 798 2180.72 798 2178 798C2178 771.27 2178 744.54 2178 717Z" fill="#664937"/>
<path d="M2086 717C2088.64 717 2091.28 717 2094 717C2094 743.73 2094 770.46 2094 798C2091.36 798 2088.72 798 2086 798C2086 771.27 2086 744.54 2086 717Z" fill="#664937"/>
<path d="M1829 717C1831.64 717 1834.28 717 1837 717C1837 743.73 1837 770.46 1837 798C1834.36 798 1831.72 798 1829 798C1829 771.27 1829 744.54 1829 717Z" fill="#664937"/>
<path d="M1173 717C1175.64 717 1178.28 717 1181 717C1181 743.73 1181 770.46 1181 798C1178.36 798 1175.72 798 1173 798C1173 771.27 1173 744.54 1173 717Z" fill="#664937"/>
<path d="M262.984 339.652C265.781 339.975 268.321 339.958 271.125 339.813C275.898 339.721 279.234 341.237 283.527 343.176C287.593 344.531 290.843 343.805 295 343C294.625 344.938 294.625 344.938 294 347C290.049 348.976 285.304 348.452 281 348C278.59 347.035 278.59 347.035 276.375 345.875C272.857 344.056 271.026 343.873 267.188 344.875C266.48 345.12 265.772 345.365 265.043 345.617C262.386 346.115 261.318 345.28 259 344C255.51 344.228 253.253 344.859 250.188 346.563C246.081 348.414 242.447 348.623 238 348C235.727 346.98 235.727 346.98 234 346C234 345.01 234 344.02 234 343C235.16 343.07 235.16 343.07 236.344 343.141C243.498 343.49 243.498 343.49 250 340.938C254.383 338.346 258.067 339.016 262.984 339.652Z" fill="#664937"/>
<path d="M264 354C266.688 354.75 266.688 354.75 269 356C272.024 357.512 274.662 357.173 278 357C279.341 356.349 280.676 355.685 282 355C284.25 355.375 284.25 355.375 286 356C285 359 285 359 282.438 360.688C276.956 362.78 272.737 362.521 267.25 360.875C263.417 359.843 263.314 360.334 260 362C255.057 362.567 250.49 362.626 245.875 360.688C244 359 244 359 243 356C244.812 355.375 244.812 355.375 247 355C247.99 355.66 248.98 356.32 250 357C255.706 357.823 259.124 356.98 264 354Z" fill="#664937"/>
<path d="M2094.07 759C2095.3 759.015 2095.3 759.015 2096.56 759.029C2097.39 759.037 2098.22 759.044 2099.07 759.052C2099.7 759.062 2100.34 759.072 2101 759.082C2099.75 762.216 2098.22 763.094 2095.05 764.929C2091.62 766.338 2088.76 766.048 2085 765.771C2085.98 764.813 2086.96 763.855 2087.94 762.897C2088.48 762.363 2089.03 761.83 2089.59 761.28C2091.86 759.087 2091.86 759.087 2094.07 759Z" fill="#664937"/>
</g>
<defs>
<clipPath id="clip0_0_1">
<rect width="2402" height="799" fill="white"/>
</clipPath>
</defs>
</svg>
